<svg width="434" height="434" viewBox="0 0 434 434" fill="none" xmlns="http://www.w3.org/2000/svg">
<mask id="mask0_201_182" style="mask-type:alpha" maskUnits="userSpaceOnUse" x="0" y="0" width="434" height="434">
<circle cx="217" cy="217" r="217" fill="#D9D9D9"/>
</mask>
<g mask="url(#mask0_201_182)">
<circle cx="215.91" cy="198.462" r="226.814" fill="white"/>
<path d="M230.725 63.9531C215.175 44.6948 48.9367 110.544 48.2191 204.262L42.9443 461.669L403.737 457.449L385.803 198.987C357.979 69.9028 245.723 58.7621 230.725 63.9531Z" fill="black" stroke="black" stroke-width="2" stroke-linecap="round"/>
<path d="M360.532 222.558C366.747 310.807 330.621 371.229 225.161 383.875C143.598 393.656 82.364 330.682 76.1483 242.434C69.9327 154.185 128.555 78.1959 207.086 72.7074C285.616 67.2188 353.597 124.104 360.532 222.558Z" fill="#EECDA0"/>
<path d="M48.5441 250.679C47.4202 236.566 56.2187 224.357 68.196 223.409C80.1733 222.461 90.1678 225.273 91.9177 247.248C93.6676 269.223 84.2431 273.571 72.2658 274.518C60.2885 275.466 49.668 264.793 48.5441 250.679Z" fill="#EECDA0"/>
<path d="M387.931 253.498C388.396 267.648 379.038 279.433 367.03 279.82C355.021 280.207 345.168 276.932 344.443 254.899C343.719 232.867 353.336 228.964 365.345 228.578C377.354 228.191 387.466 239.348 387.931 253.498Z" fill="#EECDA0"/>
<ellipse cx="10.841" cy="12.8324" rx="10.841" ry="12.8324" transform="matrix(0.999089 -0.0426826 0.0433082 0.999062 151.576 192.27)" fill="black"/>
<ellipse cx="11.2036" cy="13.2616" rx="11.2036" ry="13.2616" transform="matrix(0.999089 -0.0426826 0.0433082 0.999062 267.679 197.406)" fill="black"/>
<ellipse cx="14.3126" cy="7.78181" rx="14.3126" ry="7.78181" transform="matrix(0.999866 -0.0163585 0.0170668 0.999854 131.682 229.478)" fill="#CE906F"/>
<ellipse cx="14.3126" cy="7.78181" rx="14.3126" ry="7.78181" transform="matrix(0.999866 -0.0163585 0.0170668 0.999854 276.536 227.834)" fill="#CE906F"/>
<path d="M157.478 279.757C164.381 300.595 188.334 321.055 221.223 319.896C276.105 317.962 289.128 280.926 289.832 275.73" stroke="black" stroke-width="8" stroke-linecap="round"/>
<path d="M214.233 235.465C226.636 223.745 241.742 250.567 217.806 250.614" stroke="black" stroke-width="8" stroke-linecap="round"/>
<path d="M71.5822 217.664C128.476 211.021 216.171 120.421 252.907 75.952L252.225 70.1155L171.077 74.414L119.162 108.577C79.5966 147.707 14.6883 224.307 71.5822 217.664Z" fill="black" stroke="black"/>
<path d="M371.306 222.03C354.351 245.54 209.071 88.9569 226.772 73.2122C244.473 57.4676 311.573 88.2959 311.573 88.2959C336.448 123.648 388.262 198.521 371.306 222.03Z" fill="black" stroke="black"/>
<rect x="181.096" y="376.749" width="67.5167" height="84.3959" fill="#EECDA0"/>
</g>
</svg>
