<svg width="274" height="34" viewBox="0 0 274 34" fill="none" xmlns="http://www.w3.org/2000/svg">
<path d="M0.893377 16.8523V15.2614L16.1064 6.8718V9.30788L3.62775 16.0444L3.75204 15.8207V16.293L3.62775 16.0692L16.1064 22.8058V25.2418L0.893377 16.8523ZM37.997 26.435C36.8452 26.435 35.7929 26.2113 34.84 25.7638C33.8871 25.3081 33.129 24.6535 32.5655 23.8001C32.0021 22.9383 31.7203 21.8943 31.7203 20.668C31.7203 19.7234 31.8985 18.9279 32.2548 18.2816C32.6111 17.6353 33.1165 17.105 33.7711 16.6907C34.4257 16.2764 35.2005 15.9491 36.0953 15.7088C36.9902 15.4685 37.9763 15.2821 39.0534 15.1495C40.1223 15.0169 41.0255 14.9009 41.763 14.8015C42.5087 14.7021 43.0763 14.5446 43.4657 14.3292C43.8552 14.1138 44.0499 13.7657 44.0499 13.2852V12.8377C44.0499 11.5368 43.6605 10.5135 42.8816 9.76775C42.111 9.01373 41.0007 8.63672 39.5506 8.63672C38.1751 8.63672 37.0524 8.93916 36.1824 9.54403C35.3206 10.1489 34.7157 10.8615 34.3677 11.6818L32.2672 10.9237C32.6981 9.87962 33.2947 9.04687 34.057 8.42543C34.8193 7.79569 35.6728 7.34411 36.6174 7.07067C37.562 6.78894 38.519 6.64808 39.4885 6.64808C40.2176 6.64808 40.9758 6.74337 41.763 6.93395C42.5584 7.12453 43.2959 7.45596 43.9753 7.92827C44.6548 8.39228 45.2058 9.04273 45.6284 9.87962C46.051 10.7082 46.2623 11.7605 46.2623 13.0366V26H44.0499V22.9798H43.9132C43.648 23.5432 43.2544 24.0901 42.7324 24.6204C42.2104 25.1507 41.5558 25.5857 40.7686 25.9254C39.9815 26.2652 39.0576 26.435 37.997 26.435ZM38.2953 24.4091C39.4719 24.4091 40.4911 24.1481 41.3528 23.6261C42.2145 23.104 42.8774 22.4122 43.3414 21.5504C43.8137 20.6804 44.0499 19.7234 44.0499 18.6793V15.9201C43.8842 16.0775 43.6066 16.2184 43.2172 16.3427C42.836 16.467 42.3927 16.5788 41.8873 16.6783C41.3901 16.7694 40.8929 16.8481 40.3958 16.9144C39.8986 16.9807 39.4512 17.0387 39.0534 17.0884C37.9763 17.221 37.0565 17.4281 36.2942 17.7099C35.5319 17.9916 34.9477 18.381 34.5417 18.8782C34.1357 19.3671 33.9327 19.9968 33.9327 20.7674C33.9327 21.9274 34.347 22.8265 35.1756 23.4645C36.0042 24.0942 37.0441 24.4091 38.2953 24.4091ZM52.1474 26V6.90909H54.2976V9.84233H54.4592C54.8403 8.88115 55.5032 8.10641 56.4478 7.51811C57.4007 6.92152 58.4779 6.62322 59.6793 6.62322C59.8616 6.62322 60.0646 6.62737 60.2884 6.63565C60.5121 6.64394 60.6985 6.65223 60.8477 6.66051V8.91016C60.7482 8.89358 60.5742 8.86873 60.3256 8.83558C60.0771 8.80244 59.8078 8.78587 59.5178 8.78587C58.5234 8.78587 57.6368 8.99716 56.858 9.41974C56.0874 9.83404 55.4783 10.4099 55.0309 11.1474C54.5835 11.8848 54.3597 12.7259 54.3597 13.6705V26H52.1474ZM73.3388 6.90909V8.83558H64.2283V6.90909H73.3388ZM67.0746 2.33523H69.2994V21.016C69.2994 21.8114 69.4361 22.437 69.7095 22.8928C69.983 23.3402 70.3393 23.6592 70.7784 23.8498C71.2176 24.0321 71.6857 24.1232 72.1829 24.1232C72.4729 24.1232 72.7215 24.1067 72.9286 24.0735C73.1358 24.0321 73.3181 23.9906 73.4755 23.9492L73.9478 25.9503C73.7324 26.0331 73.4672 26.1077 73.1523 26.174C72.8375 26.2486 72.448 26.2859 71.984 26.2859C71.172 26.2859 70.389 26.1077 69.6349 25.7514C68.8892 25.3951 68.276 24.8648 67.7955 24.1605C67.3149 23.4562 67.0746 22.582 67.0746 21.538V2.33523ZM78.8604 26H76.4243L85.6839 0.545454H88.1697L97.4292 26H94.9932L87.0138 3.5657H86.8398L78.8604 26ZM80.6128 16.2433H93.2407V18.3313H80.6128V16.2433ZM103.544 14.0682V26H101.332V6.90909H103.482V9.90447H103.681C104.128 8.92673 104.824 8.1437 105.769 7.5554C106.722 6.95881 107.899 6.66051 109.299 6.66051C110.583 6.66051 111.71 6.92981 112.68 7.46839C113.657 7.9987 114.416 8.78172 114.954 9.81747C115.501 10.8532 115.774 12.1251 115.774 13.6332V26H113.562V13.7699C113.562 12.2038 113.123 10.9651 112.245 10.0536C111.375 9.14216 110.206 8.68643 108.74 8.68643C107.737 8.68643 106.846 8.90187 106.067 9.33274C105.289 9.76361 104.671 10.3851 104.215 11.1971C103.768 12.0008 103.544 12.9579 103.544 14.0682ZM128.474 26.3977C126.908 26.3977 125.536 25.9834 124.36 25.1548C123.183 24.3262 122.263 23.1703 121.6 21.6871C120.946 20.204 120.619 18.4763 120.619 16.5043C120.619 14.5405 120.946 12.8211 121.6 11.3462C122.263 9.86304 123.187 8.71129 124.372 7.89098C125.557 7.06238 126.937 6.64808 128.511 6.64808C129.671 6.64808 130.636 6.85523 131.407 7.26953C132.178 7.67554 132.795 8.18099 133.259 8.78587C133.723 9.39074 134.083 9.97905 134.34 10.5508H134.539V0.545454H136.764V26H134.601V22.4577H134.34C134.083 23.0378 133.719 23.6344 133.246 24.2475C132.774 24.8524 132.149 25.362 131.37 25.7763C130.599 26.1906 129.634 26.3977 128.474 26.3977ZM128.735 24.3718C129.969 24.3718 131.022 24.0362 131.892 23.3651C132.762 22.6856 133.425 21.7534 133.88 20.5685C134.344 19.3754 134.576 18.0082 134.576 16.467C134.576 14.9424 134.348 13.5959 133.893 12.4276C133.437 11.2509 132.774 10.3312 131.904 9.66832C131.034 8.99716 129.978 8.66158 128.735 8.66158C127.459 8.66158 126.382 9.00959 125.503 9.70561C124.633 10.3933 123.97 11.3255 123.515 12.5021C123.067 13.6787 122.843 15.0004 122.843 16.467C122.843 17.9502 123.071 19.2884 123.527 20.4815C123.983 21.6747 124.646 22.6235 125.516 23.3278C126.394 24.0238 127.467 24.3718 128.735 24.3718ZM161.137 8.5C160.905 7.65483 160.565 6.86352 160.118 6.12606C159.67 5.38033 159.115 4.72988 158.452 4.17472C157.798 3.61127 157.04 3.17211 156.178 2.85724C155.324 2.54238 154.372 2.38494 153.319 2.38494C151.662 2.38494 150.179 2.81581 148.87 3.67756C147.56 4.5393 146.525 5.7822 145.762 7.40625C145.008 9.0303 144.631 10.9858 144.631 13.2727C144.631 15.5514 145.013 17.5027 145.775 19.1268C146.537 20.7508 147.581 21.9979 148.907 22.8679C150.241 23.7296 151.766 24.1605 153.481 24.1605C155.047 24.1605 156.431 23.8125 157.632 23.1165C158.834 22.4205 159.77 21.4261 160.441 20.1335C161.121 18.8409 161.452 17.3039 161.435 15.5224L162.181 15.7585H154.028V13.6705H163.697V15.7585C163.697 17.9295 163.258 19.8062 162.38 21.3888C161.502 22.9715 160.296 24.1937 158.763 25.0554C157.23 25.9171 155.469 26.348 153.481 26.348C151.26 26.348 149.317 25.8136 147.652 24.7447C145.986 23.6675 144.689 22.1512 143.761 20.1957C142.842 18.2319 142.382 15.9242 142.382 13.2727C142.382 11.2758 142.647 9.4736 143.177 7.86612C143.708 6.25864 144.457 4.88317 145.427 3.7397C146.405 2.59623 147.56 1.72206 148.895 1.11719C150.229 0.504024 151.703 0.197442 153.319 0.197442C154.711 0.197442 155.983 0.417021 157.135 0.856177C158.295 1.29534 159.314 1.90021 160.192 2.67081C161.079 3.43312 161.804 4.31558 162.368 5.31818C162.939 6.3125 163.325 7.37311 163.523 8.5H161.137ZM174.34 26.435C173.188 26.435 172.136 26.2113 171.183 25.7638C170.23 25.3081 169.472 24.6535 168.908 23.8001C168.345 22.9383 168.063 21.8943 168.063 20.668C168.063 19.7234 168.241 18.9279 168.598 18.2816C168.954 17.6353 169.459 17.105 170.114 16.6907C170.768 16.2764 171.543 15.9491 172.438 15.7088C173.333 15.4685 174.319 15.2821 175.396 15.1495C176.465 15.0169 177.368 14.9009 178.106 14.8015C178.851 14.7021 179.419 14.5446 179.809 14.3292C180.198 14.1138 180.393 13.7657 180.393 13.2852V12.8377C180.393 11.5368 180.003 10.5135 179.224 9.76775C178.454 9.01373 177.343 8.63672 175.893 8.63672C174.518 8.63672 173.395 8.93916 172.525 9.54403C171.663 10.1489 171.059 10.8615 170.71 11.6818L168.61 10.9237C169.041 9.87962 169.637 9.04687 170.4 8.42543C171.162 7.79569 172.016 7.34411 172.96 7.07067C173.905 6.78894 174.862 6.64808 175.831 6.64808C176.56 6.64808 177.319 6.74337 178.106 6.93395C178.901 7.12453 179.639 7.45596 180.318 7.92827C180.998 8.39228 181.549 9.04273 181.971 9.87962C182.394 10.7082 182.605 11.7605 182.605 13.0366V26H180.393V22.9798H180.256C179.991 23.5432 179.597 24.0901 179.075 24.6204C178.553 25.1507 177.899 25.5857 177.111 25.9254C176.324 26.2652 175.4 26.435 174.34 26.435ZM174.638 24.4091C175.815 24.4091 176.834 24.1481 177.696 23.6261C178.557 23.104 179.22 22.4122 179.684 21.5504C180.157 20.6804 180.393 19.7234 180.393 18.6793V15.9201C180.227 16.0775 179.949 16.2184 179.56 16.3427C179.179 16.467 178.735 16.5788 178.23 16.6783C177.733 16.7694 177.236 16.8481 176.739 16.9144C176.241 16.9807 175.794 17.0387 175.396 17.0884C174.319 17.221 173.399 17.4281 172.637 17.7099C171.875 17.9916 171.291 18.381 170.884 18.8782C170.478 19.3671 170.275 19.9968 170.275 20.7674C170.275 21.9274 170.69 22.8265 171.518 23.4645C172.347 24.0942 173.387 24.4091 174.638 24.4091ZM190.703 0.545454V26H188.49V0.545454H190.703ZM198.769 0.545454V26H196.557V0.545454H198.769ZM212.341 26.3977C210.56 26.3977 209.019 25.9834 207.718 25.1548C206.417 24.3179 205.41 23.1621 204.698 21.6871C203.993 20.204 203.641 18.497 203.641 16.5664C203.641 14.6441 203.993 12.9371 204.698 11.4457C205.41 9.9459 206.392 8.77344 207.643 7.92827C208.903 7.07481 210.357 6.64808 212.006 6.64808C213.042 6.64808 214.04 6.83866 215.001 7.21981C215.962 7.59268 216.824 8.16856 217.586 8.94744C218.357 9.71804 218.966 10.6916 219.413 11.8683C219.861 13.0366 220.085 14.4203 220.085 16.0195V17.1133H205.17V15.1619H217.823C217.823 13.9356 217.574 12.8336 217.077 11.8558C216.588 10.8698 215.904 10.0909 215.026 9.51918C214.156 8.94744 213.149 8.66158 212.006 8.66158C210.796 8.66158 209.731 8.98473 208.812 9.63104C207.892 10.2773 207.171 11.1308 206.649 12.1914C206.135 13.252 205.874 14.412 205.866 15.6715V16.8398C205.866 18.3562 206.127 19.6819 206.649 20.8171C207.179 21.944 207.929 22.8182 208.899 23.4396C209.868 24.0611 211.016 24.3718 212.341 24.3718C213.245 24.3718 214.036 24.2309 214.715 23.9492C215.403 23.6675 215.979 23.2905 216.443 22.8182C216.915 22.3376 217.272 21.8114 217.512 21.2397L219.612 21.9233C219.322 22.727 218.846 23.4686 218.183 24.1481C217.528 24.8275 216.708 25.3744 215.722 25.7887C214.744 26.1947 213.617 26.3977 212.341 26.3977ZM224.96 26V6.90909H227.11V9.84233H227.272C227.653 8.88115 228.316 8.10641 229.26 7.51811C230.213 6.92152 231.29 6.62322 232.492 6.62322C232.674 6.62322 232.877 6.62737 233.101 6.63565C233.325 6.64394 233.511 6.65223 233.66 6.66051V8.91016C233.561 8.89358 233.387 8.86873 233.138 8.83558C232.89 8.80244 232.62 8.78587 232.33 8.78587C231.336 8.78587 230.449 8.99716 229.67 9.41974C228.9 9.83404 228.291 10.4099 227.843 11.1474C227.396 11.8848 227.172 12.7259 227.172 13.6705V26H224.96ZM239.558 33.1591C239.119 33.1591 238.708 33.1177 238.327 33.0348C237.946 32.9519 237.644 32.8608 237.42 32.7614L238.017 30.81C238.771 31.042 239.442 31.1249 240.03 31.0586C240.618 31.0006 241.14 30.7354 241.596 30.2631C242.052 29.7991 242.458 29.0865 242.814 28.1254L243.51 26.1864L236.488 6.90909H238.887L244.554 23.0792H244.728L250.396 6.90909H252.795L244.716 29.0202C244.376 29.94 243.958 30.7064 243.46 31.3196C242.963 31.9411 242.387 32.4009 241.733 32.6992C241.086 33.0058 240.361 33.1591 239.558 33.1591ZM273.206 16.8523L257.993 25.2418V22.8058L270.472 16.0692L270.36 16.293V15.8207L270.472 16.0444L257.993 9.30788V6.8718L273.206 15.2614V16.8523Z" fill="white"/>
</svg>
