<svg width="76" height="76" viewBox="0 0 76 76" fill="none" xmlns="http://www.w3.org/2000/svg">
<g filter="url(#filter0_d_85_124)">
<path d="M67.1944 0.00585938H9.64616C7.00921 0.00585938 4.8667 2.17834 4.8667 4.84525V62.2886C4.8667 64.9555 7.00921 67.128 9.64616 67.128H67.1944C69.8313 67.128 71.9888 64.9555 71.9888 62.2886V4.84525C71.9888 2.17834 69.8313 0.00585938 67.1944 0.00585938ZM25.1532 57.5391H15.2047V25.5063H25.1681V57.5391H25.1532ZM20.1789 21.1314C16.9876 21.1314 14.4106 18.5394 14.4106 15.363C14.4106 12.1867 16.9876 9.59474 20.1789 9.59474C23.3553 9.59474 25.9472 12.1867 25.9472 15.363C25.9472 18.5543 23.3702 21.1314 20.1789 21.1314ZM62.4449 57.5391H52.4964V41.9572C52.4964 38.2415 52.4215 33.4621 47.3274 33.4621C42.1435 33.4621 41.3494 37.5074 41.3494 41.6875V57.5391H31.4009V25.5063H40.9449V29.8812H41.0797C42.4131 27.3641 45.6644 24.7122 50.5038 24.7122C60.5721 24.7122 62.4449 31.3495 62.4449 39.9795V57.5391Z" fill="white"/>
</g>
<defs>
<filter id="filter0_d_85_124" x="0.866699" y="0.00585938" width="75.1221" height="75.1221" filterUnits="userSpaceOnUse" color-interpolation-filters="sRGB">
<feFlood flood-opacity="0" result="BackgroundImageFix"/>
<feColorMatrix in="SourceAlpha" type="matrix" values="0 0 0 0 0 0 0 0 0 0 0 0 0 0 0 0 0 0 127 0" result="hardAlpha"/>
<feOffset dy="4"/>
<feGaussianBlur stdDeviation="2"/>
<feComposite in2="hardAlpha" operator="out"/>
<feColorMatrix type="matrix" values="0 0 0 0 0 0 0 0 0 0 0 0 0 0 0 0 0 0 0.25 0"/>
<feBlend mode="normal" in2="BackgroundImageFix" result="effect1_dropShadow_85_124"/>
<feBlend mode="normal" in="SourceGraphic" in2="effect1_dropShadow_85_124" result="shape"/>
</filter>
</defs>
</svg>
