<svg width="98" height="95" viewBox="0 0 98 95" fill="none" xmlns="http://www.w3.org/2000/svg">
<g filter="url(#filter0_ii_507_714)">
<path d="M91 0.578613H6.97813C3.12812 0.578613 0 3.63283 0 7.38215V88.1399C0 91.8892 3.12812 94.9434 6.97813 94.9434H91C94.85 94.9434 98 91.8892 98 88.1399V7.38215C98 3.63283 94.85 0.578613 91 0.578613ZM29.6188 81.4627H15.0938V36.4288H29.6406V81.4627H29.6188ZM22.3562 30.2782C17.6969 30.2782 13.9344 26.6342 13.9344 22.1688C13.9344 17.7033 17.6969 14.0593 22.3562 14.0593C26.9937 14.0593 30.7781 17.7033 30.7781 22.1688C30.7781 26.6553 27.0156 30.2782 22.3562 30.2782ZM84.0656 81.4627H69.5406V59.5566C69.5406 54.3328 69.4312 47.6136 61.9937 47.6136C54.425 47.6136 53.2656 53.3007 53.2656 59.1775V81.4627H38.7406V36.4288H52.675V42.5794H52.8719C54.8187 39.0407 59.5656 35.3124 66.6313 35.3124C81.3313 35.3124 84.0656 44.6436 84.0656 56.7762V81.4627Z" fill="#E9EEF1"/>
</g>
<defs>
<filter id="filter0_ii_507_714" x="-6" y="-5.42139" width="110" height="106.365" filterUnits="userSpaceOnUse" color-interpolation-filters="sRGB">
<feFlood flood-opacity="0" result="BackgroundImageFix"/>
<feBlend mode="normal" in="SourceGraphic" in2="BackgroundImageFix" result="shape"/>
<feColorMatrix in="SourceAlpha" type="matrix" values="0 0 0 0 0 0 0 0 0 0 0 0 0 0 0 0 0 0 127 0" result="hardAlpha"/>
<feOffset dx="6" dy="6"/>
<feGaussianBlur stdDeviation="3"/>
<feComposite in2="hardAlpha" operator="arithmetic" k2="-1" k3="1"/>
<feColorMatrix type="matrix" values="0 0 0 0 0.65098 0 0 0 0 0.705882 0 0 0 0 0.784314 0 0 0 0.75 0"/>
<feBlend mode="normal" in2="shape" result="effect1_innerShadow_507_714"/>
<feColorMatrix in="SourceAlpha" type="matrix" values="0 0 0 0 0 0 0 0 0 0 0 0 0 0 0 0 0 0 127 0" result="hardAlpha"/>
<feOffset dx="-6" dy="-6"/>
<feGaussianBlur stdDeviation="3"/>
<feComposite in2="hardAlpha" operator="arithmetic" k2="-1" k3="1"/>
<feColorMatrix type="matrix" values="0 0 0 0 1 0 0 0 0 1 0 0 0 0 1 0 0 0 1 0"/>
<feBlend mode="normal" in2="effect1_innerShadow_507_714" result="effect2_innerShadow_507_714"/>
</filter>
</defs>
</svg>
