<svg width="85" height="66" viewBox="0 0 85 66" fill="none" xmlns="http://www.w3.org/2000/svg">
<g filter="url(#filter0_d_85_126)">
<path d="M79.2577 18.998C79.842 18.5335 80.711 18.968 80.711 19.7021V50.3416C80.711 54.312 77.4898 57.5333 73.5194 57.5333H11.1917C7.22126 57.5333 4 54.312 4 50.3416V19.7171C4 18.968 4.85401 18.5485 5.45331 19.0129C8.80942 21.6199 13.2593 24.9311 28.5415 36.0332C31.7029 38.3405 37.0367 43.1949 42.3555 43.1649C47.7043 43.2099 53.143 38.2506 56.1845 36.0332C71.4667 24.9311 75.9016 21.6049 79.2577 18.998ZM42.3555 38.3555C45.8315 38.4154 50.8357 33.9806 53.3527 32.1527C73.2347 17.7244 74.7479 16.4659 79.3326 12.8701C80.2016 12.1959 80.711 11.1471 80.711 10.0384V7.19166C80.711 3.22126 77.4898 0 73.5194 0H11.1917C7.22126 0 4 3.22126 4 7.19166V10.0384C4 11.1471 4.50941 12.1809 5.3784 12.8701C9.96308 16.4509 11.4763 17.7244 31.3583 32.1527C33.8753 33.9806 38.8795 38.4154 42.3555 38.3555Z" fill="white"/>
</g>
<defs>
<filter id="filter0_d_85_126" x="0" y="0" width="84.7109" height="65.5332" filterUnits="userSpaceOnUse" color-interpolation-filters="sRGB">
<feFlood flood-opacity="0" result="BackgroundImageFix"/>
<feColorMatrix in="SourceAlpha" type="matrix" values="0 0 0 0 0 0 0 0 0 0 0 0 0 0 0 0 0 0 127 0" result="hardAlpha"/>
<feOffset dy="4"/>
<feGaussianBlur stdDeviation="2"/>
<feComposite in2="hardAlpha" operator="out"/>
<feColorMatrix type="matrix" values="0 0 0 0 0 0 0 0 0 0 0 0 0 0 0 0 0 0 0.25 0"/>
<feBlend mode="normal" in2="BackgroundImageFix" result="effect1_dropShadow_85_126"/>
<feBlend mode="normal" in="SourceGraphic" in2="effect1_dropShadow_85_126" result="shape"/>
</filter>
</defs>
</svg>
