<svg width="522" height="219" viewBox="0 0 522 219" fill="none" xmlns="http://www.w3.org/2000/svg">
<path d="M456.527 71.4019C457.951 74.9769 458.279 76.655 463.742 78.6167C463.742 78.6167 460.135 79.9015 459.207 80.8291C458.279 81.7567 456.527 85.8316 456.527 85.8316C454.802 81.4186 454.278 79.7501 449.312 78.6167C454.076 76.5657 455.669 76.0398 456.527 71.4019Z" fill="#FFC548"/>
<path d="M7.21454 84.1753C8.63865 87.7503 8.9668 89.4284 14.4294 91.3901C14.4294 91.3901 10.8219 92.6749 9.89438 93.6025C8.9668 94.5301 7.21454 98.605 7.21454 98.605C5.48966 94.1919 4.96521 92.5235 -0.000294185 91.3901C4.76358 89.3391 6.35657 88.8132 7.21454 84.1753Z" fill="#FFC548"/>
<path d="M492.601 62.8864C496.269 78.853 495.204 86.3041 513.3 90.5619C513.3 90.5619 504.191 93.2839 500.527 96.9486C496.862 100.613 493.073 120.366 493.073 120.366C489.882 102.271 492.601 93.7552 473.915 91.8623C492.601 86.3041 489.335 81.3331 492.601 62.8864Z" fill="#FFC548"/>
<path d="M34.8906 20.3087C38.558 36.2753 37.4935 43.7264 55.5891 47.9842C55.5891 47.9842 46.4804 50.7062 42.8157 54.3709C39.1511 58.0355 35.3626 77.7886 35.3626 77.7886C32.1713 59.6931 34.8906 51.1775 16.2047 49.2846C34.8906 43.7264 31.6246 38.7554 34.8906 20.3087Z" fill="#FFC548"/>
<path d="M386.981 0C388.588 6.99797 388.122 10.2637 396.053 12.1298C396.053 12.1298 392.061 13.3229 390.454 14.929C388.848 16.5352 387.188 25.1927 387.188 25.1927C385.789 17.2617 386.981 13.5294 378.791 12.6998C386.981 10.2637 385.55 8.08494 386.981 0Z" fill="#FFC548"/>
<path d="M64.2634 50.113C66.2318 58.6828 65.6605 62.6821 75.373 64.9674C75.373 64.9674 70.484 66.4284 68.5171 68.3954C66.5502 70.3623 64.5167 80.9645 64.5167 80.9645C62.8039 71.252 64.2634 66.6814 54.234 65.6654C64.2634 62.6821 62.5104 60.014 64.2634 50.113Z" fill="#FFC548"/>
<path d="M399.855 13.0628C400.717 16.8189 400.467 18.5717 404.724 19.5733C404.724 19.5733 402.581 20.2137 401.719 21.0757C400.857 21.9378 399.966 26.5846 399.966 26.5846C399.215 22.3277 399.855 20.3245 395.459 19.8792C399.855 18.5717 399.086 17.4023 399.855 13.0628Z" fill="#FFC548"/>
<ellipse cx="366.169" cy="210.844" rx="41.5133" ry="6.38666" fill="#D9D9D9"/>
<ellipse cx="171.437" cy="210.573" rx="56.3542" ry="6.92069" fill="#D9D9D9"/>
<ellipse cx="280.191" cy="210.573" rx="48.4448" ry="6.92069" fill="#D9D9D9"/>
<path d="M224.344 151.87C224.344 171.115 208.743 186.715 189.498 186.715C170.254 186.715 154.653 171.115 154.653 151.87C154.653 132.626 170.254 117.025 189.498 117.025C208.743 117.025 224.344 132.626 224.344 151.87Z" fill="#2F9CEB"/>
<path d="M223.984 158.695L227.246 162.341C228.164 163.367 227.254 164.972 225.902 164.71L208.363 161.315C208.013 161.247 207.707 161.046 207.453 160.796C206.508 159.864 204.559 158.778 202.071 159.773" stroke="black" stroke-width="1.43691" stroke-linecap="round"/>
<path d="M163.634 135.705L139.853 123.21C139.664 123.111 139.501 122.97 139.367 122.804C138.188 121.34 135.716 119.101 133.818 120.185" stroke="black" stroke-width="1.43691" stroke-linecap="round"/>
<path d="M164.712 169.472L143.798 192.477C143.41 192.904 143.32 193.52 143.508 194.066C144.109 195.803 144.6 198.442 143.877 199.647" stroke="black" stroke-width="1.43691" stroke-linecap="round"/>
<path d="M193.435 181.091L195.979 207.376C196.05 208.113 196.669 208.675 197.409 208.675H201.443" stroke="black" stroke-width="1.43691" stroke-linecap="round"/>
<path d="M193.791 135.119L181.36 132.347C180.737 132.208 180.094 132.494 179.813 133.066C178.395 135.951 177.187 139.923 179.44 140.734C181.434 141.452 187.237 143.31 191.016 143.597C194.384 143.853 195 139.376 194.871 136.367C194.845 135.752 194.391 135.253 193.791 135.119Z" fill="black" stroke="black" stroke-width="1.43691" stroke-linecap="round"/>
<path d="M215.482 138.102L202.544 136.804C202.044 136.754 201.546 136.964 201.297 137.4C199.708 140.186 199.26 145.074 201.242 145.404C203.307 145.879 209.951 147.016 213.737 146.851C217.111 146.704 217.189 142.185 216.703 139.212C216.604 138.605 216.094 138.163 215.482 138.102Z" fill="black" stroke="black" stroke-width="1.43691" stroke-linecap="round"/>
<path d="M195.246 139.656C196.803 139.656 200.06 139.944 200.635 141.093" stroke="black" stroke-width="1.43691" stroke-linecap="round"/>
<path d="M178.722 134.627L171.896 129.957" stroke="black" stroke-width="1.43691" stroke-linecap="round"/>
<path d="M217.518 142.171L219.674 141.453" stroke="black" stroke-width="1.43691" stroke-linecap="round"/>
<path d="M197.401 140.375C197.88 142.171 198.407 146.123 196.683 147.559" stroke="black" stroke-width="1.43691" stroke-linecap="round"/>
<path d="M184.11 147.565C185.417 149.989 189.369 154.443 194.72 152.864" stroke="black" stroke-width="1.43691" stroke-linecap="round"/>
<circle cx="277.868" cy="162.647" r="34.8451" fill="#FFC548"/>
<path d="M287.927 192.463V205.365C287.927 206.398 288.985 207.094 289.933 206.684L300.858 201.967C301.986 201.48 303.216 202.576 303.233 203.805C303.253 205.156 303.715 206.275 305.17 206.114" stroke="black" stroke-width="1.43691" stroke-linecap="round"/>
<path d="M272.48 177.375C276.432 178.573 285.7 178.956 291.16 170.909" stroke="black" stroke-width="1.43691" stroke-linecap="round"/>
<path d="M263.473 160.291L250.738 160.455C250.1 160.463 249.54 160.889 249.398 161.511C248.682 164.645 248.421 168.789 250.801 169.059C252.907 169.298 258.981 169.771 262.724 169.181C266.061 168.654 265.63 164.155 264.812 161.256C264.645 160.665 264.088 160.283 263.473 160.291Z" fill="black" stroke="black" stroke-width="1.43691" stroke-linecap="round"/>
<path d="M285.268 158.2L272.379 159.916C271.881 159.982 271.445 160.301 271.303 160.783C270.398 163.86 271.087 168.719 273.092 168.585C275.211 168.571 281.938 168.148 285.584 167.116C288.834 166.196 287.87 161.78 286.712 158.999C286.476 158.432 285.878 158.119 285.268 158.2Z" fill="black" stroke="black" stroke-width="1.43691" stroke-linecap="round"/>
<path d="M265.934 164.372C267.449 164.013 270.684 163.543 271.508 164.53" stroke="black" stroke-width="1.43691" stroke-linecap="round"/>
<path d="M248.695 163.282L245.289 162.601" stroke="black" stroke-width="1.43691" stroke-linecap="round"/>
<path d="M288.187 161.691L295.941 157.572" stroke="black" stroke-width="1.43691" stroke-linecap="round"/>
<path d="M268.28 165.116L267.72 170.72C267.635 171.566 268.299 172.3 269.149 172.3H270.795" stroke="black" stroke-width="1.43691" stroke-linecap="round"/>
<path d="M267.81 192.463L247.943 190.807C247.059 190.734 246.321 191.47 246.391 192.354L247.569 207.077C247.636 207.913 246.976 208.628 246.137 208.628H242.305" stroke="black" stroke-width="1.43691" stroke-linecap="round"/>
<path d="M309.121 154.385L338.98 141.588C339.188 141.499 339.37 141.361 339.524 141.194C340.854 139.747 343.774 137.673 346.481 139.297" stroke="black" stroke-width="1.43691" stroke-linecap="round"/>
<path d="M244.46 173.783L240.938 182.589C240.56 183.533 241.255 184.56 242.272 184.56H260.84C261.166 184.56 261.479 184.444 261.752 184.265C263.112 183.37 265.641 182.491 267.451 184.56" stroke="black" stroke-width="1.43691" stroke-linecap="round"/>
<ellipse cx="91.5312" cy="126.747" rx="34.0567" ry="34.0568" fill="#FF7F48"/>
<path d="M115.828 147.213L140.503 158.205C141.195 158.513 142.008 158.282 142.434 157.656L144.76 154.243" stroke="black" stroke-width="1.56583" stroke-linecap="round"/>
<path d="M67.3073 147.842L38.933 158.004C38.2201 158.259 37.4267 157.967 37.0485 157.311L34.6858 153.213" stroke="black" stroke-width="1.56583" stroke-linecap="round"/>
<path d="M121.265 111.167L145.614 100.303" stroke="black" stroke-width="1.49842" stroke-linecap="round"/>
<path d="M62.2486 111.916L37.5248 100.303" stroke="black" stroke-width="1.49842" stroke-linecap="round"/>
<path d="M102.004 100.303L96.7828 102.392C96.0969 102.666 96.18 103.662 96.9019 103.819L103.128 105.173" stroke="black" stroke-width="1.49842" stroke-linecap="round"/>
<path d="M92.265 102.551V105.547" stroke="black" stroke-width="1.49842" stroke-linecap="round"/>
<path d="M82.1994 100.303L87.826 102.626C88.5025 102.905 88.4183 103.889 87.7041 104.049L81.0267 105.547" stroke="black" stroke-width="1.49842" stroke-linecap="round"/>
<path d="M74.9484 107.989C81.1918 111.485 96.5256 116.23 107.914 107.24" stroke="black" stroke-width="1.49842" stroke-linecap="round"/>
<path d="M72.3262 107.988C73.45 107.988 75.7725 107.539 76.0722 105.741" stroke="black" stroke-width="1.49842" stroke-linecap="round"/>
<path d="M110.162 107.989C109.263 107.989 107.405 107.539 107.165 105.741" stroke="black" stroke-width="1.49842" stroke-linecap="round"/>
<path d="M84.3351 172.546V185.252" stroke="black" stroke-width="1.58815" stroke-linecap="round"/>
<path d="M91.4814 172.546V197.56" stroke="black" stroke-width="1.58815" stroke-linecap="round"/>
<path d="M98.6285 172.546V188.428" stroke="black" stroke-width="1.58815" stroke-linecap="round"/>
<ellipse cx="90.8603" cy="210.375" rx="40.7826" ry="7.61276" fill="#D9D9D9"/>
<ellipse cx="456.569" cy="211.183" rx="40.0411" ry="6.92069" fill="#D9D9D9"/>
<circle cx="453.17" cy="156.951" r="34.0213" transform="rotate(-4.75818 453.17 156.951)" fill="#FE76B4"/>
<ellipse cx="2.04013" cy="2.04006" rx="2.04013" ry="2.04006" transform="matrix(0.996554 -0.0829472 0.0829537 0.996553 456.313 127.294)" fill="black"/>
<ellipse cx="2.04013" cy="2.04006" rx="2.04013" ry="2.04006" transform="matrix(0.996554 -0.0829472 0.0829537 0.996553 445.748 127.224)" fill="black"/>
<path d="M441.244 123.191L448.235 124.589" stroke="black" stroke-width="1.86418" stroke-linecap="round"/>
<ellipse cx="454.237" cy="138.754" rx="2.79628" ry="7.45673" fill="black"/>
<path d="M459.04 122.613L462.769 121.214" stroke="black" stroke-width="1.86418" stroke-linecap="round"/>
<path d="M481.78 146.018C483.333 146.795 486.813 147.883 488.304 146.018C489.796 144.154 488.926 136.542 488.304 133.901C491.567 132.037 489.703 129.707 487.838 130.173" stroke="black" stroke-width="1.86418" stroke-linecap="round"/>
<path d="M424.834 146.018C423.281 146.795 419.801 147.883 418.31 146.018C416.818 144.154 417.688 136.542 418.31 133.901C415.047 132.037 416.912 129.707 418.776 130.173" stroke="black" stroke-width="1.86418" stroke-linecap="round"/>
<path d="M467.534 185.217C476.12 182.36 493.713 177.928 495.393 183.063C497.073 188.198 491.566 200.877 488.602 206.575L494.707 206.032" stroke="black" stroke-width="1.86418" stroke-linecap="round"/>
<path d="M444.678 185.862C435.162 183.823 415.752 181.068 414.247 186.363C412.741 191.657 419.523 203.812 423.102 209.227L416.429 209.266" stroke="black" stroke-width="1.86418" stroke-linecap="round"/>
<circle cx="364.21" cy="148.881" r="32.9315" fill="#00B487"/>
<path d="M361.939 144.717L361.711 147.229C361.63 148.116 362.328 148.881 363.219 148.881H365.581C366.471 148.881 367.169 148.116 367.088 147.229L366.86 144.717" stroke="black" stroke-width="1.51409"/>
<ellipse cx="354.747" cy="135.254" rx="1.51409" ry="1.89262" fill="black"/>
<ellipse cx="372.916" cy="135.254" rx="1.51409" ry="1.89262" fill="black"/>
<circle cx="348.691" cy="134.118" r="13.6268" stroke="black" stroke-width="1.51409"/>
<circle cx="380.487" cy="134.118" r="13.6268" stroke="black" stroke-width="1.51409"/>
<path d="M362.318 132.983C364.14 131.957 365.138 131.914 366.86 132.983" stroke="black" stroke-width="1.51409"/>
<path d="M332.885 128.452C332.479 128.35 332.068 128.597 331.966 129.002C331.865 129.408 332.112 129.819 332.517 129.92L332.885 128.452ZM335.913 129.209L332.885 128.452L332.517 129.92L335.546 130.677L335.913 129.209Z" fill="black"/>
<path d="M397.326 131.824C397.731 131.723 397.978 131.312 397.876 130.906C397.775 130.501 397.364 130.254 396.958 130.355L397.326 131.824ZM394.297 132.581L397.326 131.824L396.958 130.355L393.93 131.113L394.297 132.581Z" fill="black"/>
<path d="M360.803 144.162C363.826 145.68 365.488 145.959 368.289 143.96" stroke="black" stroke-width="1.51409" stroke-linecap="round"/>
<path d="M396.385 151.152C407.954 141.656 408.779 136.799 404.334 118.599" stroke="black" stroke-width="1.51409" stroke-linecap="round"/>
<path d="M357.019 178.784V205.281C357.019 206.117 356.341 206.795 355.504 206.795H351.719" stroke="black" stroke-width="1.51409" stroke-linecap="round"/>
<path d="M376.702 177.27L393.671 197.127C394.146 197.684 394.952 197.82 395.585 197.451L399.035 195.439" stroke="black" stroke-width="1.51409" stroke-linecap="round"/>
<path d="M332.036 151.152C323.282 142.216 319.899 135.361 326.358 108" stroke="black" stroke-width="1.51409" stroke-linecap="round"/>
</svg>
