<svg width="78" height="78" viewBox="0 0 78 78" fill="none" xmlns="http://www.w3.org/2000/svg">
<g filter="url(#filter0_d_97_92)">
<path d="M39 0C19.6794 0 4 15.6794 4 35C4 54.3206 19.6794 70 39 70C58.3206 70 74 54.3206 74 35C74 15.6794 58.3206 0 39 0ZM53.2117 51.498C52.619 51.498 52.252 51.3145 51.7016 50.9899C42.8952 45.6835 32.6492 45.4577 22.5302 47.5323C21.9798 47.6734 21.2601 47.8992 20.8508 47.8992C19.4819 47.8992 18.621 46.8125 18.621 45.6694C18.621 44.2157 19.4819 43.5242 20.5403 43.2984C32.0988 40.744 43.9113 40.9698 53.9879 46.996C54.8488 47.5464 55.3569 48.0403 55.3569 49.3246C55.3569 50.6089 54.3548 51.498 53.2117 51.498ZM57.0081 42.2399C56.2742 42.2399 55.7802 41.9153 55.2722 41.6472C46.4516 36.4254 33.2984 34.3226 21.5988 37.498C20.9214 37.6815 20.5544 37.8649 19.9194 37.8649C18.4093 37.8649 17.1815 36.6371 17.1815 35.127C17.1815 33.6169 17.9153 32.6149 19.369 32.2056C23.2923 31.1048 27.3004 30.2863 33.1714 30.2863C42.3306 30.2863 51.1794 32.5585 58.1512 36.7077C59.2944 37.3851 59.746 38.2601 59.746 39.4879C59.7319 41.0121 58.5464 42.2399 57.0081 42.2399ZM61.3831 31.4859C60.6492 31.4859 60.1976 31.3024 59.5625 30.9355C49.5141 24.9375 31.5484 23.498 19.9194 26.744C19.4113 26.8851 18.7762 27.1109 18.0988 27.1109C16.2359 27.1109 14.8105 25.6573 14.8105 23.7802C14.8105 21.8609 15.996 20.7742 17.2661 20.4073C22.2339 18.9536 27.7944 18.2621 33.8488 18.2621C44.1512 18.2621 54.9476 20.4073 62.8367 25.0081C63.9375 25.6431 64.6573 26.5181 64.6573 28.1976C64.6573 30.1169 63.1048 31.4859 61.3831 31.4859Z" fill="white"/>
</g>
<defs>
<filter id="filter0_d_97_92" x="0" y="0" width="78" height="78" filterUnits="userSpaceOnUse" color-interpolation-filters="sRGB">
<feFlood flood-opacity="0" result="BackgroundImageFix"/>
<feColorMatrix in="SourceAlpha" type="matrix" values="0 0 0 0 0 0 0 0 0 0 0 0 0 0 0 0 0 0 127 0" result="hardAlpha"/>
<feOffset dy="4"/>
<feGaussianBlur stdDeviation="2"/>
<feComposite in2="hardAlpha" operator="out"/>
<feColorMatrix type="matrix" values="0 0 0 0 0 0 0 0 0 0 0 0 0 0 0 0 0 0 0.25 0"/>
<feBlend mode="normal" in2="BackgroundImageFix" result="effect1_dropShadow_97_92"/>
<feBlend mode="normal" in="SourceGraphic" in2="effect1_dropShadow_97_92" result="shape"/>
</filter>
</defs>
</svg>
