<svg width="433" height="521" viewBox="0 0 433 521" fill="none" xmlns="http://www.w3.org/2000/svg">
<g filter="url(#filter0_d_8_115)">
<path d="M20.5 298L131.5 429.5C131.5 460.7 34.5 495.833 -14 509.5V414.5C6.9018 414.5 35.2448 393.616 54.3775 376.28C36.3743 386.239 4.75364 396.083 -14 401L-21 313C3.8 313 17 303 20.5 298Z" fill="#383433"/>
<path d="M131.5 429.5L20.5 298C17 303 3.8 313 -21 313L-14 401C13.3333 393.833 68 376.2 68 363C51.8333 380.167 12.8 414.5 -14 414.5V509.5C34.5 495.833 131.5 460.7 131.5 429.5Z" stroke="#383433" stroke-linecap="square"/>
<path d="M-12 145L93.5 158V187.5L-12 177.5V145Z" fill="#FFD0B2" stroke="#FFD0B2" stroke-linecap="square"/>
<path d="M230.231 1.4103C251.118 0.30916 267.422 1.04124 267.422 8.41829C267.422 15.7953 275.538 9.72512 280.31 9.89383C285.082 10.0625 309.275 26.616 313.819 35.3446C318.362 44.0733 325.507 61.4938 324.865 77.0248C322.288 149.566 317.133 295.754 317.133 300.18C317.133 304.607 280.555 298.336 262.267 294.648C221.026 284.566 141.857 251.123 141.857 161.123C141.857 71.1233 169.474 36.4513 183.835 25.0168C191.568 18.3775 209.242 2.51685 230.231 1.4103Z" fill="#371606" stroke="#371606"/>
<path d="M270.244 6.94336C268.465 6.94336 267.291 9.78758 265.997 9.78758C264.704 9.78758 290.059 23.5346 287.059 15.476C284.06 7.41738 272.467 6.94336 270.244 6.94336Z" fill="black" stroke="black"/>
<path d="M198.564 169.238L203.719 137.148L258.585 112.435L240.91 177.721L270.368 212.394L243.487 244.853L180.521 233.049L170.579 165.549L198.564 169.238Z" fill="#FFD0B2" stroke="#FFD0B2"/>
<path d="M307.738 99.9579C301.004 141.343 277.766 165.286 227.741 159.647C189.052 155.286 167.655 119.575 174.389 78.189C181.122 36.8035 216.431 8.12704 253.255 14.1383C290.078 20.1497 315.249 53.7867 307.738 99.9579Z" fill="#FFD0B2"/>
<path d="M164.775 86.0831C165.792 79.4503 171.179 74.7752 176.807 75.6411C182.436 76.5069 186.74 78.8911 185.157 89.2187C183.573 99.5463 178.753 100.527 173.125 99.6607C167.496 98.7949 163.758 92.716 164.775 86.0831Z" fill="#FFD0B2"/>
<path d="M315.161 112.938C313.837 119.516 308.238 123.934 302.656 122.806C297.074 121.678 292.885 119.095 294.948 108.853C297.011 98.6107 301.872 97.8568 307.453 98.9847C313.035 100.113 316.486 106.36 315.161 112.938Z" fill="#FFD0B2"/>
<path d="M175.097 74.0736C202.245 74.0736 248.508 36.2435 268.246 17.3284V14.5434L229.809 12.1064L203.492 25.3354C182.715 41.5815 147.948 74.0736 175.097 74.0736Z" fill="#371606" stroke="#371606"/>
<path d="M309.732 96.4031C298.813 104.74 254.408 13.7616 264.599 9.0496C274.791 4.33759 300.997 27.5352 300.997 27.5352C307.427 46.9874 320.651 88.0664 309.732 96.4031Z" fill="#371606" stroke="#371606"/>
<path d="M358.742 174.402L338.858 182.516V211.656L364.634 204.279C374.03 199.83 378.276 194.795 384.518 182.516L421.34 100.631C424.68 93.5035 425.061 89.3706 423.918 81.8198C421.904 76.8828 420.058 74.7028 413.239 73.7051C402.128 75.2795 390.861 97.7677 390.041 93.6231C389.222 89.4785 383.781 87.7215 381.94 93.6231C380.099 99.5247 381.453 105.55 384.518 114.279C377.499 138.138 370.932 151.188 358.742 174.402Z" fill="#FFD0B2" stroke="#FFD0B2" stroke-linecap="square"/>
<ellipse cx="4.05072" cy="4.79479" rx="4.05072" ry="4.79479" transform="matrix(0.982211 0.18778 -0.187165 0.982328 212.51 71.8613)" fill="black"/>
<path d="M235.018 98.7872C242.014 94.7302 246.065 108.746 235.018 106.164" stroke="black" stroke-width="3" stroke-linecap="round"/>
<path d="M207.033 106.533C207.951 116.897 216.774 128.941 232.073 131.984C257.6 137.062 267.637 121.394 268.527 119.074" stroke="black" stroke-width="3" stroke-linecap="round"/>
<ellipse cx="4.05072" cy="4.79479" rx="4.05072" ry="4.79479" transform="matrix(0.982211 0.18778 -0.187165 0.982328 261.853 82.9268)" fill="black"/>
<ellipse cx="6.78353" cy="3.68824" rx="6.78353" ry="3.68824" transform="matrix(0.976926 0.21358 -0.212888 0.977077 199.179 85.5957)" fill="#CE906F"/>
<ellipse cx="6.78353" cy="3.68824" rx="6.78353" ry="3.68824" transform="matrix(0.976926 0.21358 -0.212888 0.977077 266.046 100.631)" fill="#CE906F"/>
<rect width="33.8813" height="24.7881" transform="matrix(0.959665 0.281146 -0.280267 0.959922 239.02 177.353)" fill="#FFD0B2"/>
<path d="M232.072 230.836C212.763 241.401 190.004 193.559 187.885 167.024L120.5 158.172V167.024V461C208.783 401.67 244.241 358.683 290.988 237.106C290.988 237.106 337.385 246.696 338.858 241.901C340.331 237.106 347.695 182.885 340.331 181.041C332.966 179.196 275.784 184.401 245.697 179.196C247.377 214.529 242.632 225.058 232.072 230.836Z" fill="#9CC0E4" stroke="#9CC0E4" stroke-linecap="square"/>
<path d="M67.9998 152C70.4995 149 122.5 158.5 122.5 158.5L120 460L-11.5 309.5C15 301.5 87.3333 255.166 120 222C120 222 69.9995 224.5 67.9998 222C66 219.5 65.5 155 67.9998 152Z" fill="#9CC0E4" stroke="#9CC0E4" stroke-linecap="square"/>
</g>
<defs>
<filter id="filter0_d_8_115" x="-21.5413" y="0.5" width="454.541" height="519.66" filterUnits="userSpaceOnUse" color-interpolation-filters="sRGB">
<feFlood flood-opacity="0" result="BackgroundImageFix"/>
<feColorMatrix in="SourceAlpha" type="matrix" values="0 0 0 0 0 0 0 0 0 0 0 0 0 0 0 0 0 0 127 0" result="hardAlpha"/>
<feOffset dx="4" dy="6"/>
<feGaussianBlur stdDeviation="2"/>
<feComposite in2="hardAlpha" operator="out"/>
<feColorMatrix type="matrix" values="0 0 0 0 0 0 0 0 0 0 0 0 0 0 0 0 0 0 0.25 0"/>
<feBlend mode="normal" in2="BackgroundImageFix" result="effect1_dropShadow_8_115"/>
<feBlend mode="normal" in="SourceGraphic" in2="effect1_dropShadow_8_115" result="shape"/>
</filter>
</defs>
</svg>
