<svg width="76" height="76" viewBox="0 0 76 76" fill="none" xmlns="http://www.w3.org/2000/svg">
<g filter="url(#filter0_d_85_123)">
<path d="M64.7972 0.87793H12.0584C8.08796 0.87793 4.8667 4.09919 4.8667 8.06959V60.8084C4.8667 64.7788 8.08796 68.0001 12.0584 68.0001H64.7972C68.7676 68.0001 71.9888 64.7788 71.9888 60.8084V8.06959C71.9888 4.09919 68.7676 0.87793 64.7972 0.87793ZM46.4135 58.3663C45.155 58.591 44.6905 57.8119 44.6905 57.1676C44.6905 56.3586 44.7205 52.2234 44.7205 48.8822C44.7205 46.545 43.9414 45.0617 43.0274 44.2826C48.571 43.6683 54.4142 42.9042 54.4142 33.3303C54.4142 30.6035 53.4404 29.24 51.8522 27.4871C52.1069 26.8428 52.9609 24.1909 51.5975 20.7449C49.5149 20.1006 44.7504 23.4268 44.7504 23.4268C42.7727 22.8724 40.6302 22.5877 38.5177 22.5877C36.4051 22.5877 34.2626 22.8724 32.2849 23.4268C32.2849 23.4268 27.5204 20.1006 25.4378 20.7449C24.0744 24.1759 24.9134 26.8278 25.1831 27.4871C23.595 29.24 22.8458 30.6035 22.8458 33.3303C22.8458 42.8592 28.4344 43.6683 33.9779 44.2826C33.2588 44.9268 32.6145 46.0355 32.3898 47.6237C30.9664 48.268 27.3256 49.3767 25.1532 45.5411C23.7897 43.1739 21.3326 42.9791 21.3326 42.9791C18.9054 42.9491 21.1678 44.5073 21.1678 44.5073C22.7859 45.2565 23.9246 48.1331 23.9246 48.1331C25.3779 52.583 32.3298 51.0847 32.3298 51.0847C32.3298 53.1673 32.3598 56.5534 32.3598 57.1676C32.3598 57.8119 31.9103 58.591 30.6368 58.3663C20.7483 55.0551 13.8263 45.646 13.8263 34.6488C13.8263 20.8947 24.3441 10.4518 38.0982 10.4518C51.8522 10.4518 62.9993 20.8947 62.9993 34.6488C63.0143 45.646 56.302 55.0701 46.4135 58.3663ZM31.7156 49.2119C31.4309 49.2718 31.1612 49.1519 31.1312 48.9572C31.1013 48.7324 31.296 48.5377 31.5807 48.4777C31.8654 48.4478 32.1351 48.5676 32.165 48.7624C32.21 48.9572 32.0152 49.1519 31.7156 49.2119ZM30.2922 49.077C30.2922 49.2718 30.0675 49.4366 29.7678 49.4366C29.4382 49.4666 29.2135 49.3018 29.2135 49.077C29.2135 48.8823 29.4382 48.7174 29.7378 48.7174C30.0225 48.6875 30.2922 48.8523 30.2922 49.077ZM28.2396 48.9122C28.1797 49.107 27.88 49.1969 27.6253 49.107C27.3406 49.0471 27.1459 48.8223 27.2058 48.6276C27.2657 48.4328 27.5654 48.3429 27.8201 48.4028C28.1197 48.4927 28.3145 48.7174 28.2396 48.9122ZM26.3967 48.1032C26.2619 48.268 25.9772 48.238 25.7525 48.0133C25.5277 47.8185 25.4678 47.5338 25.6176 47.399C25.7525 47.2342 26.0371 47.2641 26.2619 47.4889C26.4567 47.6836 26.5316 47.9833 26.3967 48.1032ZM25.0333 46.7397C24.8985 46.8296 24.6438 46.7397 24.479 46.515C24.3141 46.2903 24.3141 46.0356 24.479 45.9307C24.6438 45.7958 24.8985 45.9007 25.0333 46.1254C25.1981 46.3502 25.1981 46.6199 25.0333 46.7397ZM24.0594 45.2864C23.9246 45.4213 23.6999 45.3463 23.535 45.1965C23.3702 45.0017 23.3403 44.777 23.4751 44.6721C23.61 44.5373 23.8347 44.6122 23.9995 44.762C24.1643 44.9568 24.1943 45.1815 24.0594 45.2864ZM23.0556 44.1777C22.9957 44.3125 22.8009 44.3425 22.6361 44.2376C22.4413 44.1477 22.3514 43.9829 22.4113 43.8481C22.4713 43.7582 22.6361 43.7132 22.8309 43.7882C23.0256 43.893 23.1155 44.0578 23.0556 44.1777Z" fill="#FFFAFA"/>
</g>
<defs>
<filter id="filter0_d_85_123" x="0.866699" y="0.87793" width="75.1221" height="75.1221" filterUnits="userSpaceOnUse" color-interpolation-filters="sRGB">
<feFlood flood-opacity="0" result="BackgroundImageFix"/>
<feColorMatrix in="SourceAlpha" type="matrix" values="0 0 0 0 0 0 0 0 0 0 0 0 0 0 0 0 0 0 127 0" result="hardAlpha"/>
<feOffset dy="4"/>
<feGaussianBlur stdDeviation="2"/>
<feComposite in2="hardAlpha" operator="out"/>
<feColorMatrix type="matrix" values="0 0 0 0 0 0 0 0 0 0 0 0 0 0 0 0 0 0 0.25 0"/>
<feBlend mode="normal" in2="BackgroundImageFix" result="effect1_dropShadow_85_123"/>
<feBlend mode="normal" in="SourceGraphic" in2="effect1_dropShadow_85_123" result="shape"/>
</filter>
</defs>
</svg>
