<svg width="80" height="79" viewBox="0 0 80 79" fill="none" xmlns="http://www.w3.org/2000/svg">
<g filter="url(#filter0_d_97_93)">
<path d="M28.0823 57.1691C28.0823 57.4627 27.7484 57.6976 27.3274 57.6976C26.8484 57.7417 26.5145 57.5068 26.5145 57.1691C26.5145 56.8755 26.8484 56.6406 27.2694 56.6406C27.7048 56.5965 28.0823 56.8314 28.0823 57.1691ZM23.5677 56.5084C23.4661 56.8021 23.7565 57.1397 24.1919 57.2278C24.5694 57.3746 25.0048 57.2278 25.0919 56.9342C25.179 56.6406 24.9032 56.3029 24.4677 56.1708C24.0903 56.068 23.6694 56.2148 23.5677 56.5084ZM29.9839 56.2589C29.5629 56.3616 29.2726 56.6406 29.3161 56.9782C29.3597 57.2719 29.7371 57.4627 30.1726 57.36C30.5935 57.2572 30.8839 56.9782 30.8403 56.6846C30.7968 56.4057 30.4048 56.2148 29.9839 56.2589ZM39.5355 0C19.4016 0 4 15.4594 4 35.8224C4 52.104 14.1323 66.0366 28.6048 70.9402C30.4629 71.2779 31.1161 70.118 31.1161 69.1637C31.1161 68.2535 31.0726 63.2325 31.0726 60.1494C31.0726 60.1494 20.9113 62.3516 18.7774 55.7744C18.7774 55.7744 17.1226 51.5021 14.7419 50.401C14.7419 50.401 11.4177 48.096 14.9742 48.1401C14.9742 48.1401 18.5887 48.4337 20.5774 51.9279C23.7565 57.5949 29.0839 55.9652 31.1597 54.9963C31.4935 52.6472 32.4371 51.0176 33.4823 50.0486C25.3677 49.1384 17.1806 47.9492 17.1806 33.8258C17.1806 29.7884 18.2839 27.7624 20.6065 25.1785C20.229 24.2242 18.9952 20.2896 20.9839 15.2099C24.0177 14.2556 31 19.1738 31 19.1738C33.9032 18.3517 37.0242 17.9259 40.1161 17.9259C43.2081 17.9259 46.329 18.3517 49.2323 19.1738C49.2323 19.1738 56.2145 14.2409 59.2484 15.2099C61.2371 20.3043 60.0032 24.2242 59.6258 25.1785C61.9484 27.7771 63.371 29.8031 63.371 33.8258C63.371 47.9933 54.821 49.1237 46.7065 50.0486C48.0419 51.2085 49.1742 53.4107 49.1742 56.8608C49.1742 61.8084 49.1306 67.9305 49.1306 69.1344C49.1306 70.0887 49.7984 71.2485 51.6419 70.9108C66.1581 66.0366 76 52.104 76 35.8224C76 15.4594 59.6694 0 39.5355 0ZM18.1097 50.6359C17.921 50.7827 17.9645 51.1204 18.2113 51.3993C18.4435 51.6342 18.7774 51.737 18.9661 51.5461C19.1548 51.3993 19.1113 51.0617 18.8645 50.7827C18.6323 50.5478 18.2984 50.445 18.1097 50.6359ZM16.5419 49.4467C16.4403 49.6376 16.5855 49.8725 16.8758 50.0193C17.1081 50.1661 17.3984 50.1221 17.5 49.9165C17.6016 49.7257 17.4565 49.4908 17.1661 49.3439C16.8758 49.2559 16.6435 49.2999 16.5419 49.4467ZM21.2452 54.6733C21.0129 54.8641 21.1 55.3046 21.4339 55.5835C21.7677 55.9212 22.1887 55.9652 22.3774 55.7303C22.5661 55.5395 22.479 55.099 22.1887 54.8201C21.8694 54.4824 21.4339 54.4384 21.2452 54.6733ZM19.5903 52.5151C19.3581 52.6619 19.3581 53.0436 19.5903 53.3813C19.8226 53.719 20.2145 53.8658 20.4032 53.719C20.6355 53.5281 20.6355 53.1464 20.4032 52.8087C20.2 52.4711 19.8226 52.3243 19.5903 52.5151Z" fill="white"/>
</g>
<defs>
<filter id="filter0_d_97_93" x="0" y="0" width="80" height="79" filterUnits="userSpaceOnUse" color-interpolation-filters="sRGB">
<feFlood flood-opacity="0" result="BackgroundImageFix"/>
<feColorMatrix in="SourceAlpha" type="matrix" values="0 0 0 0 0 0 0 0 0 0 0 0 0 0 0 0 0 0 127 0" result="hardAlpha"/>
<feOffset dy="4"/>
<feGaussianBlur stdDeviation="2"/>
<feComposite in2="hardAlpha" operator="out"/>
<feColorMatrix type="matrix" values="0 0 0 0 0 0 0 0 0 0 0 0 0 0 0 0 0 0 0.25 0"/>
<feBlend mode="normal" in2="BackgroundImageFix" result="effect1_dropShadow_97_93"/>
<feBlend mode="normal" in="SourceGraphic" in2="effect1_dropShadow_97_93" result="shape"/>
</filter>
</defs>
</svg>
