<svg width="108" height="103" viewBox="0 0 108 103" fill="none" xmlns="http://www.w3.org/2000/svg">
<g filter="url(#filter0_ii_507_716)">
<path d="M36.1234 82.8899C36.1234 83.3156 35.6226 83.6562 34.9911 83.6562C34.2726 83.7201 33.7718 83.3795 33.7718 82.8899C33.7718 82.4642 34.2726 82.1236 34.904 82.1236C35.5573 82.0597 36.1234 82.4003 36.1234 82.8899ZM29.3516 81.932C29.1992 82.3577 29.6347 82.8473 30.2879 82.975C30.854 83.1879 31.5073 82.975 31.6379 82.5493C31.7685 82.1236 31.3548 81.634 30.7016 81.4424C30.1355 81.2934 29.504 81.5063 29.3516 81.932ZM38.9758 81.5701C38.3444 81.7191 37.9089 82.1236 37.9742 82.6132C38.0395 83.0389 38.6056 83.3156 39.2589 83.1666C39.8903 83.0176 40.3258 82.6132 40.2605 82.1874C40.1952 81.783 39.6073 81.5063 38.9758 81.5701ZM53.3032 0C23.1024 0 0 22.4148 0 51.9392C0 75.546 15.1984 95.747 36.9073 102.857C39.6944 103.346 40.6742 101.665 40.6742 100.281C40.6742 98.9612 40.6089 91.6812 40.6089 87.2111C40.6089 87.2111 25.3669 90.404 22.1661 80.8677C22.1661 80.8677 19.6839 74.6733 16.1129 73.0768C16.1129 73.0768 11.1266 69.7348 16.4613 69.7986C16.4613 69.7986 21.8831 70.2244 24.8661 75.2906C29.6347 83.5072 37.6258 81.1444 40.7395 79.7395C41.2403 76.3336 42.6556 73.9708 44.2234 72.5659C32.0516 71.2461 19.771 69.5219 19.771 49.0442C19.771 43.1904 21.4258 40.2529 24.9097 36.5065C24.3435 35.1228 22.4927 29.418 25.4758 22.0529C30.0266 20.6693 40.5 27.8003 40.5 27.8003C44.8548 26.6082 49.5363 25.9909 54.1742 25.9909C58.8121 25.9909 63.4935 26.6082 67.8484 27.8003C67.8484 27.8003 78.3218 20.648 82.8726 22.0529C85.8556 29.4393 84.0048 35.1228 83.4387 36.5065C86.9226 40.2742 89.0565 43.2117 89.0565 49.0442C89.0565 69.5858 76.2315 71.2248 64.0597 72.5659C66.0629 74.2475 67.7613 77.4405 67.7613 82.4429C67.7613 89.6164 67.696 98.4929 67.696 100.238C67.696 101.622 68.6976 103.304 71.4629 102.814C93.2371 95.747 108 75.546 108 51.9392C108 22.4148 83.504 0 53.3032 0ZM21.1645 73.4174C20.8815 73.6302 20.9468 74.1198 21.3169 74.5243C21.6653 74.8649 22.1661 75.0139 22.4492 74.7371C22.7323 74.5243 22.6669 74.0347 22.2968 73.6302C21.9484 73.2896 21.4476 73.1406 21.1645 73.4174ZM18.8129 71.6931C18.6605 71.9699 18.8782 72.3105 19.3137 72.5233C19.6621 72.7362 20.0976 72.6723 20.25 72.3743C20.4024 72.0976 20.1847 71.757 19.7492 71.5441C19.3137 71.4164 18.9653 71.4803 18.8129 71.6931ZM25.8677 79.2712C25.5194 79.5479 25.65 80.1865 26.1508 80.5909C26.6516 81.0805 27.2831 81.1444 27.5661 80.8038C27.8492 80.5271 27.7185 79.8885 27.2831 79.484C26.804 78.9944 26.1508 78.9306 25.8677 79.2712ZM23.3855 76.142C23.0371 76.3549 23.0371 76.9084 23.3855 77.398C23.7339 77.8875 24.3218 78.1004 24.6048 77.8875C24.9532 77.6108 24.9532 77.0574 24.6048 76.5678C24.3 76.0782 23.7339 75.8653 23.3855 76.142Z" fill="#E9EEF1"/>
</g>
<defs>
<filter id="filter0_ii_507_716" x="-6" y="-6" width="120" height="114.943" filterUnits="userSpaceOnUse" color-interpolation-filters="sRGB">
<feFlood flood-opacity="0" result="BackgroundImageFix"/>
<feBlend mode="normal" in="SourceGraphic" in2="BackgroundImageFix" result="shape"/>
<feColorMatrix in="SourceAlpha" type="matrix" values="0 0 0 0 0 0 0 0 0 0 0 0 0 0 0 0 0 0 127 0" result="hardAlpha"/>
<feOffset dx="6" dy="6"/>
<feGaussianBlur stdDeviation="3"/>
<feComposite in2="hardAlpha" operator="arithmetic" k2="-1" k3="1"/>
<feColorMatrix type="matrix" values="0 0 0 0 0.65098 0 0 0 0 0.705882 0 0 0 0 0.784314 0 0 0 0.75 0"/>
<feBlend mode="normal" in2="shape" result="effect1_innerShadow_507_716"/>
<feColorMatrix in="SourceAlpha" type="matrix" values="0 0 0 0 0 0 0 0 0 0 0 0 0 0 0 0 0 0 127 0" result="hardAlpha"/>
<feOffset dx="-6" dy="-6"/>
<feGaussianBlur stdDeviation="3"/>
<feComposite in2="hardAlpha" operator="arithmetic" k2="-1" k3="1"/>
<feColorMatrix type="matrix" values="0 0 0 0 1 0 0 0 0 1 0 0 0 0 1 0 0 0 1 0"/>
<feBlend mode="normal" in2="effect1_innerShadow_507_716" result="effect2_innerShadow_507_716"/>
</filter>
</defs>
</svg>
