<svg width="1041" height="291" viewBox="0 0 1041 291" fill="none" xmlns="http://www.w3.org/2000/svg">
<path d="M59.98 225V204H73.48V207.6H63.94V212.61H72.64V216.21H63.94V221.4H73.66V225H59.98ZM81.3313 225.42C80.2713 225.42 79.3213 225.24 78.4813 224.88C77.6413 224.5 76.9713 223.96 76.4713 223.26C75.9913 222.54 75.7513 221.67 75.7513 220.65C75.7513 219.63 75.9913 218.78 76.4713 218.1C76.9713 217.4 77.6513 216.88 78.5113 216.54C79.3913 216.18 80.3913 216 81.5113 216H85.5913V215.16C85.5913 214.46 85.3713 213.89 84.9313 213.45C84.4913 212.99 83.7913 212.76 82.8313 212.76C81.8913 212.76 81.1913 212.98 80.7313 213.42C80.2713 213.84 79.9713 214.39 79.8313 215.07L76.3513 213.9C76.5913 213.14 76.9713 212.45 77.4913 211.83C78.0313 211.19 78.7413 210.68 79.6213 210.3C80.5213 209.9 81.6113 209.7 82.8913 209.7C84.8513 209.7 86.4013 210.19 87.5413 211.17C88.6813 212.15 89.2513 213.57 89.2513 215.43V220.98C89.2513 221.58 89.5313 221.88 90.0913 221.88H91.2913V225H88.7713C88.0313 225 87.4213 224.82 86.9413 224.46C86.4613 224.1 86.2213 223.62 86.2213 223.02V222.99H85.6513C85.5713 223.23 85.3913 223.55 85.1113 223.95C84.8313 224.33 84.3913 224.67 83.7913 224.97C83.1913 225.27 82.3713 225.42 81.3313 225.42ZM81.9913 222.36C83.0513 222.36 83.9113 222.07 84.5713 221.49C85.2513 220.89 85.5913 220.1 85.5913 219.12V218.82H81.7813C81.0813 218.82 80.5313 218.97 80.1313 219.27C79.7313 219.57 79.5313 219.99 79.5313 220.53C79.5313 221.07 79.7413 221.51 80.1613 221.85C80.5813 222.19 81.1913 222.36 81.9913 222.36ZM98.6711 225C97.6911 225 96.8911 224.7 96.2711 224.1C95.6711 223.48 95.3711 222.66 95.3711 221.64V213.24H91.6511V210.12H95.3711V205.5H99.1511V210.12H103.231V213.24H99.1511V220.98C99.1511 221.58 99.4311 221.88 99.9911 221.88H102.871V225H98.6711ZM119.97 225C118.99 225 118.19 224.7 117.57 224.1C116.97 223.48 116.67 222.66 116.67 221.64V213.24H112.95V210.12H116.67V205.5H120.45V210.12H124.53V213.24H120.45V220.98C120.45 221.58 120.73 221.88 121.29 221.88H124.17V225H119.97ZM134.504 225.42C133.024 225.42 131.694 225.12 130.514 224.52C129.334 223.92 128.404 223.05 127.724 221.91C127.044 220.77 126.704 219.4 126.704 217.8V217.32C126.704 215.72 127.044 214.35 127.724 213.21C128.404 212.07 129.334 211.2 130.514 210.6C131.694 210 133.024 209.7 134.504 209.7C135.984 209.7 137.314 210 138.494 210.6C139.674 211.2 140.604 212.07 141.284 213.21C141.964 214.35 142.304 215.72 142.304 217.32V217.8C142.304 219.4 141.964 220.77 141.284 221.91C140.604 223.05 139.674 223.92 138.494 224.52C137.314 225.12 135.984 225.42 134.504 225.42ZM134.504 222.06C135.664 222.06 136.624 221.69 137.384 220.95C138.144 220.19 138.524 219.11 138.524 217.71V217.41C138.524 216.01 138.144 214.94 137.384 214.2C136.644 213.44 135.684 213.06 134.504 213.06C133.344 213.06 132.384 213.44 131.624 214.2C130.864 214.94 130.484 216.01 130.484 217.41V217.71C130.484 219.11 130.864 220.19 131.624 220.95C132.384 221.69 133.344 222.06 134.504 222.06ZM145.073 217.62V217.14C145.073 215.58 145.383 214.25 146.003 213.15C146.623 212.03 147.443 211.18 148.463 210.6C149.503 210 150.633 209.7 151.853 209.7C153.213 209.7 154.243 209.94 154.943 210.42C155.643 210.9 156.153 211.4 156.473 211.92H157.013V210.12H160.733V227.64C160.733 228.66 160.433 229.47 159.833 230.07C159.233 230.69 158.433 231 157.433 231H147.473V227.7H156.113C156.673 227.7 156.953 227.4 156.953 226.8V222.93H156.413C156.213 223.25 155.933 223.58 155.573 223.92C155.213 224.24 154.733 224.51 154.133 224.73C153.533 224.95 152.773 225.06 151.853 225.06C150.633 225.06 149.503 224.77 148.463 224.19C147.443 223.59 146.623 222.74 146.003 221.64C145.383 220.52 145.073 219.18 145.073 217.62ZM152.933 221.76C154.093 221.76 155.063 221.39 155.843 220.65C156.623 219.91 157.013 218.87 157.013 217.53V217.23C157.013 215.87 156.623 214.83 155.843 214.11C155.083 213.37 154.113 213 152.933 213C151.773 213 150.803 213.37 150.023 214.11C149.243 214.83 148.853 215.87 148.853 217.23V217.53C148.853 218.87 149.243 219.91 150.023 220.65C150.803 221.39 151.773 221.76 152.933 221.76ZM171.704 225.42C170.224 225.42 168.914 225.11 167.774 224.49C166.654 223.85 165.774 222.96 165.134 221.82C164.514 220.66 164.204 219.3 164.204 217.74V217.38C164.204 215.82 164.514 214.47 165.134 213.33C165.754 212.17 166.624 211.28 167.744 210.66C168.864 210.02 170.164 209.7 171.644 209.7C173.104 209.7 174.374 210.03 175.454 210.69C176.534 211.33 177.374 212.23 177.974 213.39C178.574 214.53 178.874 215.86 178.874 217.38V218.67H168.044C168.084 219.69 168.464 220.52 169.184 221.16C169.904 221.8 170.784 222.12 171.824 222.12C172.884 222.12 173.664 221.89 174.164 221.43C174.664 220.97 175.044 220.46 175.304 219.9L178.394 221.52C178.114 222.04 177.704 222.61 177.164 223.23C176.644 223.83 175.944 224.35 175.064 224.79C174.184 225.21 173.064 225.42 171.704 225.42ZM168.074 215.85H175.034C174.954 214.99 174.604 214.3 173.984 213.78C173.384 213.26 172.594 213 171.614 213C170.594 213 169.784 213.26 169.184 213.78C168.584 214.3 168.214 214.99 168.074 215.85ZM187.441 225C186.461 225 185.661 224.7 185.041 224.1C184.441 223.48 184.141 222.66 184.141 221.64V213.24H180.421V210.12H184.141V205.5H187.921V210.12H192.001V213.24H187.921V220.98C187.921 221.58 188.201 221.88 188.761 221.88H191.641V225H187.441ZM195.422 225V204H199.202V211.95H199.742C199.902 211.63 200.152 211.31 200.492 210.99C200.832 210.67 201.282 210.41 201.842 210.21C202.422 209.99 203.152 209.88 204.032 209.88C205.192 209.88 206.202 210.15 207.062 210.69C207.942 211.21 208.622 211.94 209.102 212.88C209.582 213.8 209.822 214.88 209.822 216.12V225H206.042V216.42C206.042 215.3 205.762 214.46 205.202 213.9C204.662 213.34 203.882 213.06 202.862 213.06C201.702 213.06 200.802 213.45 200.162 214.23C199.522 214.99 199.202 216.06 199.202 217.44V225H195.422ZM220.689 225.42C219.209 225.42 217.899 225.11 216.759 224.49C215.639 223.85 214.759 222.96 214.119 221.82C213.499 220.66 213.189 219.3 213.189 217.74V217.38C213.189 215.82 213.499 214.47 214.119 213.33C214.739 212.17 215.609 211.28 216.729 210.66C217.849 210.02 219.149 209.7 220.629 209.7C222.089 209.7 223.359 210.03 224.439 210.69C225.519 211.33 226.359 212.23 226.959 213.39C227.559 214.53 227.859 215.86 227.859 217.38V218.67H217.029C217.069 219.69 217.449 220.52 218.169 221.16C218.889 221.8 219.769 222.12 220.809 222.12C221.869 222.12 222.649 221.89 223.149 221.43C223.649 220.97 224.029 220.46 224.289 219.9L227.379 221.52C227.099 222.04 226.689 222.61 226.149 223.23C225.629 223.83 224.929 224.35 224.049 224.79C223.169 225.21 222.049 225.42 220.689 225.42ZM217.059 215.85H224.019C223.939 214.99 223.589 214.3 222.969 213.78C222.369 213.26 221.579 213 220.599 213C219.579 213 218.769 213.26 218.169 213.78C217.569 214.3 217.199 214.99 217.059 215.85ZM231.223 225V210.12H234.943V211.8H235.483C235.703 211.2 236.063 210.76 236.563 210.48C237.083 210.2 237.683 210.06 238.363 210.06H240.163V213.42H238.303C237.343 213.42 236.553 213.68 235.933 214.2C235.313 214.7 235.003 215.48 235.003 216.54V225H231.223Z" fill="black"/>
<path d="M25.1945 256.47V255.6H28.7195V261H27.8645L27.7145 259.365C27.1445 260.52 25.8695 261.15 24.2645 261.15C21.2195 261.15 19.5845 258.87 19.5845 255.75C19.5845 252.645 21.2045 250.395 24.4145 250.395C26.6195 250.395 28.0295 251.46 28.7195 253.26L27.7295 253.635C27.2045 252.21 26.1545 251.415 24.4145 251.415C21.8945 251.415 20.6495 253.125 20.6495 255.705C20.6495 258.195 21.7445 260.13 24.3395 260.13C26.1395 260.13 27.7145 259.185 27.7145 256.8V256.47H25.1945ZM37.3088 256.935C37.3088 257.145 37.2938 257.4 37.2638 257.58H31.8488C31.8788 259.2 32.7788 260.175 34.2338 260.175C35.0438 260.175 35.6888 259.965 36.3638 259.245L37.0838 259.875C36.2138 260.79 35.3588 261.12 34.2188 261.12C31.9688 261.12 30.8138 259.44 30.8138 257.34C30.8138 255.255 31.9538 253.485 34.0988 253.485C36.3638 253.485 37.3088 255.255 37.3088 256.935ZM34.0988 254.355C32.7638 254.355 31.9388 255.405 31.8488 256.71H36.3188C36.3188 256.68 36.3038 256.605 36.3038 256.47C36.2288 255.27 35.4638 254.355 34.0988 254.355ZM42.4572 260.01L42.4722 260.925C42.0822 261.045 41.6922 261.12 41.3472 261.12C40.3572 261.12 39.6372 260.565 39.6372 259.26V254.475H38.4072V253.605H39.6372V251.685L40.6722 250.905V253.605H42.4572V254.475H40.6722V259.125C40.6722 259.845 41.0022 260.175 41.5872 260.175C41.8422 260.175 42.1272 260.115 42.4572 260.01ZM52.0179 253.485C53.6079 253.485 54.4329 254.505 54.4329 256.47V261H53.3979V256.725C53.3979 255.135 52.8879 254.4 51.7779 254.4C50.3829 254.4 49.5729 255.6 49.5729 257.685V261H48.5379V253.605H49.5729V254.685C50.0529 253.935 50.9529 253.485 52.0179 253.485ZM59.885 261.12C57.77 261.12 56.345 259.485 56.345 257.295C56.345 255.105 57.77 253.485 59.885 253.485C61.985 253.485 63.44 255.105 63.44 257.295C63.44 259.47 62 261.12 59.885 261.12ZM59.885 260.205C61.475 260.205 62.405 258.945 62.405 257.295C62.405 255.615 61.46 254.4 59.885 254.4C58.295 254.4 57.38 255.63 57.38 257.295C57.38 258.975 58.31 260.205 59.885 260.205ZM68.5168 260.01L68.5318 260.925C68.1418 261.045 67.7518 261.12 67.4068 261.12C66.4168 261.12 65.6968 260.565 65.6968 259.26V254.475H64.4668V253.605H65.6968V251.685L66.7318 250.905V253.605H68.5168V254.475H66.7318V259.125C66.7318 259.845 67.0618 260.175 67.6468 260.175C67.9018 260.175 68.1868 260.115 68.5168 260.01ZM70.4059 252.075V250.545H71.6059V252.075H70.4059ZM70.4959 261V253.605H71.5309V261H70.4959ZM79.3605 253.605V261H78.3255V254.475H75.4605V261H74.4255V254.475H73.1505V253.605H74.4255V253.005C74.4255 251.25 75.6105 250.425 77.0655 250.425C77.9655 250.425 78.6855 250.665 79.3605 251.13L78.8655 251.85C78.3705 251.49 77.8305 251.28 77.1105 251.28C76.0455 251.28 75.4605 251.805 75.4605 253.02V253.605H79.3605ZM87.9045 256.935C87.9045 257.145 87.8895 257.4 87.8595 257.58H82.4445C82.4745 259.2 83.3745 260.175 84.8295 260.175C85.6395 260.175 86.2845 259.965 86.9595 259.245L87.6795 259.875C86.8095 260.79 85.9545 261.12 84.8145 261.12C82.5645 261.12 81.4095 259.44 81.4095 257.34C81.4095 255.255 82.5495 253.485 84.6945 253.485C86.9595 253.485 87.9045 255.255 87.9045 256.935ZM84.6945 254.355C83.3595 254.355 82.5345 255.405 82.4445 256.71H86.9145C86.9145 256.68 86.8995 256.605 86.8995 256.47C86.8245 255.27 86.0595 254.355 84.6945 254.355ZM95.1379 250.545H96.1729V261H95.1379V260.01C94.5979 260.7 93.7729 261.12 92.6929 261.12C90.5329 261.12 89.4079 259.5 89.4079 257.295C89.4079 254.985 90.6379 253.47 92.6929 253.47C93.7429 253.47 94.5829 253.875 95.1379 254.595V250.545ZM92.8429 260.205C94.4029 260.205 95.2279 258.975 95.2279 257.295C95.2279 255.54 94.3279 254.385 92.8429 254.385C91.3429 254.385 90.4429 255.54 90.4429 257.295C90.4429 258.975 91.2679 260.205 92.8429 260.205ZM104.231 261L102.056 253.605H103.166L104.756 259.44L106.706 253.605H107.651L109.586 259.44L111.191 253.605H112.286L110.126 261H109.151L107.186 255.03L105.191 261H104.231ZM117.57 253.485C119.16 253.485 119.985 254.505 119.985 256.47V261H118.95V256.725C118.95 255.12 118.44 254.4 117.33 254.4C115.92 254.4 115.125 255.555 115.125 257.595V261H114.09V250.545H115.125V254.685C115.605 253.935 116.505 253.485 117.57 253.485ZM128.437 256.935C128.437 257.145 128.422 257.4 128.392 257.58H122.977C123.007 259.2 123.907 260.175 125.362 260.175C126.172 260.175 126.817 259.965 127.492 259.245L128.212 259.875C127.342 260.79 126.487 261.12 125.347 261.12C123.097 261.12 121.942 259.44 121.942 257.34C121.942 255.255 123.082 253.485 125.227 253.485C127.492 253.485 128.437 255.255 128.437 256.935ZM125.227 254.355C123.892 254.355 123.067 255.405 122.977 256.71H127.447C127.447 256.68 127.432 256.605 127.432 256.47C127.357 255.27 126.592 254.355 125.227 254.355ZM134.005 253.485C135.595 253.485 136.42 254.505 136.42 256.47V261H135.385V256.725C135.385 255.135 134.875 254.4 133.765 254.4C132.37 254.4 131.56 255.6 131.56 257.685V261H130.525V253.605H131.56V254.685C132.04 253.935 132.94 253.485 134.005 253.485ZM143.889 264.06L145.119 260.91L141.984 253.605H143.124L145.674 259.695L147.909 253.605H149.049L144.999 264.06H143.889ZM153.327 261.12C151.212 261.12 149.787 259.485 149.787 257.295C149.787 255.105 151.212 253.485 153.327 253.485C155.427 253.485 156.882 255.105 156.882 257.295C156.882 259.47 155.442 261.12 153.327 261.12ZM153.327 260.205C154.917 260.205 155.847 258.945 155.847 257.295C155.847 255.615 154.902 254.4 153.327 254.4C151.737 254.4 150.822 255.63 150.822 257.295C150.822 258.975 151.752 260.205 153.327 260.205ZM163.579 253.605H164.614V261H163.579V259.935C163.054 260.73 162.109 261.12 161.134 261.12C159.454 261.12 158.719 259.965 158.719 258.135V253.605H159.754V257.88C159.754 259.08 159.964 260.205 161.374 260.205C162.844 260.205 163.579 258.93 163.579 257.01V253.605ZM170.576 253.485C171.026 253.485 171.446 253.575 171.851 253.8L171.341 254.64C170.996 254.49 170.681 254.415 170.366 254.415C169.226 254.415 168.386 255.27 168.386 256.875V261H167.351V253.605H168.386V254.715C168.926 253.74 169.826 253.485 170.576 253.485ZM180.038 260.1C181.508 260.325 183.248 260.535 183.248 262.14C183.248 263.535 181.943 264.18 180.083 264.18C178.028 264.18 176.783 263.37 176.783 261.9C176.783 261.75 176.798 261.66 176.813 261.57L178.013 260.55C177.443 260.295 177.053 259.875 177.053 259.14C177.053 258.54 177.323 258.09 177.848 257.73C177.458 257.28 177.218 256.71 177.218 256.05C177.218 254.55 178.448 253.485 180.038 253.485C180.758 253.485 181.403 253.71 181.883 254.085L182.903 253.2L183.443 253.875L182.438 254.715C182.693 255.12 182.843 255.585 182.843 256.11C182.843 257.625 181.613 258.63 180.053 258.63C179.483 258.63 178.958 258.495 178.523 258.255C178.223 258.42 178.043 258.69 178.043 259.005C178.043 259.755 178.973 259.935 180.038 260.1ZM180.053 254.355C179.003 254.355 178.238 255.06 178.238 256.08C178.238 257.04 178.928 257.775 180.038 257.775C181.148 257.775 181.808 257.055 181.808 256.08C181.808 255.06 181.118 254.355 180.053 254.355ZM180.128 263.31C181.433 263.31 182.213 262.95 182.213 262.23C182.213 261.33 181.043 261.195 179.813 261C179.483 260.955 179.138 260.895 178.823 260.82L177.818 261.795C177.803 261.87 177.803 261.9 177.803 261.93C177.803 262.98 178.868 263.31 180.128 263.31ZM188.535 253.485C188.985 253.485 189.405 253.575 189.81 253.8L189.3 254.64C188.955 254.49 188.64 254.415 188.325 254.415C187.185 254.415 186.345 255.27 186.345 256.875V261H185.31V253.605H186.345V254.715C186.885 253.74 187.785 253.485 188.535 253.485ZM193.567 261.12C191.452 261.12 190.027 259.485 190.027 257.295C190.027 255.105 191.452 253.485 193.567 253.485C195.667 253.485 197.122 255.105 197.122 257.295C197.122 259.47 195.682 261.12 193.567 261.12ZM193.567 260.205C195.157 260.205 196.087 258.945 196.087 257.295C196.087 255.615 195.142 254.4 193.567 254.4C191.977 254.4 191.062 255.63 191.062 257.295C191.062 258.975 191.992 260.205 193.567 260.205ZM203.818 253.605H204.853V261H203.818V259.935C203.293 260.73 202.348 261.12 201.373 261.12C199.693 261.12 198.958 259.965 198.958 258.135V253.605H199.993V257.88C199.993 259.08 200.203 260.205 201.613 260.205C203.083 260.205 203.818 258.93 203.818 257.01V253.605ZM211.071 253.47C213.126 253.47 214.356 254.985 214.356 257.295C214.356 259.5 213.231 261.12 211.071 261.12C209.991 261.12 209.166 260.7 208.626 260.01V264.06H207.591V253.605H208.626V254.595C209.181 253.875 210.021 253.47 211.071 253.47ZM210.921 260.205C212.496 260.205 213.321 258.975 213.321 257.295C213.321 255.54 212.421 254.385 210.921 254.385C209.436 254.385 208.536 255.54 208.536 257.295C208.536 258.975 209.361 260.205 210.921 260.205ZM221.828 261L219.653 253.605H220.763L222.353 259.44L224.303 253.605H225.248L227.183 259.44L228.788 253.605H229.883L227.723 261H226.748L224.783 255.03L222.788 261H221.828ZM234.179 253.485C236.039 253.485 237.119 254.55 237.119 256.395V261H236.174L236.114 259.86C235.529 260.685 234.629 261.12 233.459 261.12C231.854 261.12 230.909 260.28 230.909 258.855C230.909 258.105 231.209 257.535 231.749 257.205C232.319 256.875 233.114 256.74 234.569 256.74H236.084V256.395C236.084 255.105 235.409 254.4 234.164 254.4C233.234 254.4 232.514 254.805 231.914 255.63L231.164 255C231.959 253.965 232.919 253.485 234.179 253.485ZM233.759 260.265C235.184 260.265 236.084 259.26 236.084 257.685V257.58H234.659C233.294 257.58 232.709 257.67 232.349 257.955C232.079 258.165 231.944 258.495 231.944 258.915C231.944 259.74 232.649 260.265 233.759 260.265ZM243.121 253.485C244.711 253.485 245.536 254.505 245.536 256.47V261H244.501V256.725C244.501 255.135 243.991 254.4 242.881 254.4C241.486 254.4 240.676 255.6 240.676 257.685V261H239.641V253.605H240.676V254.685C241.156 253.935 242.056 253.485 243.121 253.485ZM251.154 260.01L251.169 260.925C250.779 261.045 250.389 261.12 250.044 261.12C249.054 261.12 248.334 260.565 248.334 259.26V254.475H247.104V253.605H248.334V251.685L249.369 250.905V253.605H251.154V254.475H249.369V259.125C249.369 259.845 249.699 260.175 250.284 260.175C250.539 260.175 250.824 260.115 251.154 260.01ZM255.441 261.12C253.986 261.12 252.801 260.37 252.411 259.185L253.281 258.795C253.551 259.56 254.271 260.205 255.426 260.205C256.431 260.205 257.076 259.71 257.076 258.93C257.076 256.965 252.816 258.195 252.816 255.57C252.816 254.28 253.866 253.485 255.351 253.485C256.536 253.485 257.496 253.98 258.006 255.03L257.181 255.48C256.821 254.82 256.236 254.4 255.321 254.4C254.406 254.4 253.821 254.775 253.821 255.42C253.821 257.175 258.096 256.065 258.096 258.87C258.096 260.37 256.866 261.12 255.441 261.12ZM267.355 260.01L267.37 260.925C266.98 261.045 266.59 261.12 266.245 261.12C265.255 261.12 264.535 260.565 264.535 259.26V254.475H263.305V253.605H264.535V251.685L265.57 250.905V253.605H267.355V254.475H265.57V259.125C265.57 259.845 265.9 260.175 266.485 260.175C266.74 260.175 267.025 260.115 267.355 260.01ZM272.156 261.12C270.041 261.12 268.616 259.485 268.616 257.295C268.616 255.105 270.041 253.485 272.156 253.485C274.256 253.485 275.711 255.105 275.711 257.295C275.711 259.47 274.271 261.12 272.156 261.12ZM272.156 260.205C273.746 260.205 274.676 258.945 274.676 257.295C274.676 255.615 273.731 254.4 272.156 254.4C270.566 254.4 269.651 255.63 269.651 257.295C269.651 258.975 270.581 260.205 272.156 260.205ZM105.389 273.485C106.979 273.485 107.804 274.505 107.804 276.47V281H106.769V276.725C106.769 275.135 106.259 274.4 105.149 274.4C103.754 274.4 102.944 275.6 102.944 277.685V281H101.909V273.605H102.944V274.685C103.424 273.935 104.324 273.485 105.389 273.485ZM113.257 281.12C111.142 281.12 109.717 279.485 109.717 277.295C109.717 275.105 111.142 273.485 113.257 273.485C115.357 273.485 116.812 275.105 116.812 277.295C116.812 279.47 115.372 281.12 113.257 281.12ZM113.257 280.205C114.847 280.205 115.777 278.945 115.777 277.295C115.777 275.615 114.832 274.4 113.257 274.4C111.667 274.4 110.752 275.63 110.752 277.295C110.752 278.975 111.682 280.205 113.257 280.205ZM126.537 273.485C128.307 273.485 129.042 274.655 129.042 276.38V281H128.007V276.665C128.007 276.035 128.007 274.4 126.387 274.4C124.887 274.4 124.482 275.78 124.482 277.445V281H123.447V276.725C123.447 275.495 123.072 274.4 121.782 274.4C120.342 274.4 119.937 275.765 119.937 277.445V281H118.902L118.887 273.605H119.892V274.505C120.357 273.77 121.107 273.485 121.932 273.485C122.967 273.485 123.732 273.935 124.107 274.91C124.587 273.965 125.412 273.485 126.537 273.485ZM138.749 280.01L138.764 280.925C138.374 281.045 137.984 281.12 137.639 281.12C136.649 281.12 135.929 280.565 135.929 279.26V274.475H134.699V273.605H135.929V271.685L136.964 270.905V273.605H138.749V274.475H136.964V279.125C136.964 279.845 137.294 280.175 137.879 280.175C138.134 280.175 138.419 280.115 138.749 280.01ZM143.55 281.12C141.435 281.12 140.01 279.485 140.01 277.295C140.01 275.105 141.435 273.485 143.55 273.485C145.65 273.485 147.105 275.105 147.105 277.295C147.105 279.47 145.665 281.12 143.55 281.12ZM143.55 280.205C145.14 280.205 146.07 278.945 146.07 277.295C146.07 275.615 145.125 274.4 143.55 274.4C141.96 274.4 141.045 275.63 141.045 277.295C141.045 278.975 141.975 280.205 143.55 280.205ZM151.745 280.1C153.215 280.325 154.955 280.535 154.955 282.14C154.955 283.535 153.65 284.18 151.79 284.18C149.735 284.18 148.49 283.37 148.49 281.9C148.49 281.75 148.505 281.66 148.52 281.57L149.72 280.55C149.15 280.295 148.76 279.875 148.76 279.14C148.76 278.54 149.03 278.09 149.555 277.73C149.165 277.28 148.925 276.71 148.925 276.05C148.925 274.55 150.155 273.485 151.745 273.485C152.465 273.485 153.11 273.71 153.59 274.085L154.61 273.2L155.15 273.875L154.145 274.715C154.4 275.12 154.55 275.585 154.55 276.11C154.55 277.625 153.32 278.63 151.76 278.63C151.19 278.63 150.665 278.495 150.23 278.255C149.93 278.42 149.75 278.69 149.75 279.005C149.75 279.755 150.68 279.935 151.745 280.1ZM151.76 274.355C150.71 274.355 149.945 275.06 149.945 276.08C149.945 277.04 150.635 277.775 151.745 277.775C152.855 277.775 153.515 277.055 153.515 276.08C153.515 275.06 152.825 274.355 151.76 274.355ZM151.835 283.31C153.14 283.31 153.92 282.95 153.92 282.23C153.92 281.33 152.75 281.195 151.52 281C151.19 280.955 150.845 280.895 150.53 280.82L149.525 281.795C149.51 281.87 149.51 281.9 149.51 281.93C149.51 282.98 150.575 283.31 151.835 283.31ZM162.619 276.935C162.619 277.145 162.604 277.4 162.574 277.58H157.159C157.189 279.2 158.089 280.175 159.544 280.175C160.354 280.175 160.999 279.965 161.674 279.245L162.394 279.875C161.524 280.79 160.669 281.12 159.529 281.12C157.279 281.12 156.124 279.44 156.124 277.34C156.124 275.255 157.264 273.485 159.409 273.485C161.674 273.485 162.619 275.255 162.619 276.935ZM159.409 274.355C158.074 274.355 157.249 275.405 157.159 276.71H161.629C161.629 276.68 161.614 276.605 161.614 276.47C161.539 275.27 160.774 274.355 159.409 274.355ZM167.767 280.01L167.782 280.925C167.392 281.045 167.002 281.12 166.657 281.12C165.667 281.12 164.947 280.565 164.947 279.26V274.475H163.717V273.605H164.947V271.685L165.982 270.905V273.605H167.767V274.475H165.982V279.125C165.982 279.845 166.312 280.175 166.897 280.175C167.152 280.175 167.437 280.115 167.767 280.01ZM173.226 273.485C174.816 273.485 175.641 274.505 175.641 276.47V281H174.606V276.725C174.606 275.12 174.096 274.4 172.986 274.4C171.576 274.4 170.781 275.555 170.781 277.595V281H169.746V270.545H170.781V274.685C171.261 273.935 172.161 273.485 173.226 273.485ZM184.093 276.935C184.093 277.145 184.078 277.4 184.048 277.58H178.633C178.663 279.2 179.563 280.175 181.018 280.175C181.828 280.175 182.473 279.965 183.148 279.245L183.868 279.875C182.998 280.79 182.143 281.12 181.003 281.12C178.753 281.12 177.598 279.44 177.598 277.34C177.598 275.255 178.738 273.485 180.883 273.485C183.148 273.485 184.093 275.255 184.093 276.935ZM180.883 274.355C179.548 274.355 178.723 275.405 178.633 276.71H183.103C183.103 276.68 183.088 276.605 183.088 276.47C183.013 275.27 182.248 274.355 180.883 274.355ZM189.407 273.485C189.857 273.485 190.277 273.575 190.682 273.8L190.172 274.64C189.827 274.49 189.512 274.415 189.197 274.415C188.057 274.415 187.217 275.27 187.217 276.875V281H186.182V273.605H187.217V274.715C187.757 273.74 188.657 273.485 189.407 273.485ZM191.233 281V279.35H192.583V281H191.233Z" fill="black"/>
<ellipse cx="209.5" cy="155" rx="37.5" ry="7" fill="#D9D9D9"/>
<circle cx="209.062" cy="100.147" r="34.4112" transform="rotate(-4.75818 209.062 100.147)" fill="#FFC548"/>
<circle cx="236.084" cy="84.589" r="2.2928" transform="rotate(-4.75818 236.084 84.589)" fill="black"/>
<circle cx="224.21" cy="84.5112" r="2.2928" transform="rotate(-4.75818 224.21 84.5112)" fill="black"/>
<path d="M217.021 73.5513L224.092 74.9655" stroke="black" stroke-width="1.88555" stroke-linecap="round"/>
<path d="M148.199 102.306H165.169" stroke="black" stroke-width="1.88555" stroke-linecap="round"/>
<path d="M135 108.905H165.64" stroke="black" stroke-width="1.88555" stroke-linecap="round"/>
<path d="M144.428 95.2351H165.169" stroke="black" stroke-width="1.88555" stroke-linecap="round"/>
<ellipse cx="231.163" cy="94.2923" rx="2.82832" ry="7.54218" fill="black"/>
<path d="M231.634 74.9654L235.405 73.5513" stroke="black" stroke-width="1.88555" stroke-linecap="round"/>
<path d="M201.937 91.9354C197.711 94.2527 191.381 99.9991 195.194 106.405C196.469 108.548 199.093 109.284 201.586 109.355C205.238 109.459 209.701 109.928 211.836 111.262C213.722 111.734 213.722 116.919 209.95 115.033" stroke="black" stroke-width="1.88555" stroke-linecap="round"/>
<path d="M243.89 99.949C245.462 100.735 248.981 101.835 250.49 99.949C251.998 98.0635 251.118 90.3642 250.49 87.693C253.789 85.8074 251.904 83.4504 250.018 83.9218" stroke="black" stroke-width="1.88555" stroke-linecap="round"/>
<path d="M214.193 122.576C223.149 118.49 241.722 111.545 244.362 116.448C247.001 121.35 242.948 134.832 240.591 140.96L247.19 139.545M191.566 129.646L173 151.5C175.357 152.128 180.071 153.668 180.071 154.8" stroke="black" stroke-width="1.88555" stroke-linecap="round"/>
<circle cx="75.062" cy="84.8791" r="34.4112" transform="rotate(-4.75818 75.062 84.8791)" fill="#FE76B4"/>
<path d="M64.8842 81.9422C58.1643 78.8751 44.3023 67.6674 42.6131 47.3737C40.3688 46.9298 36.0837 45.0791 36.8983 41.2272" stroke="black" stroke-width="1.88555" stroke-linecap="round"/>
<circle cx="85.4406" cy="69.8248" r="4.71387" transform="rotate(-4.75818 85.4406 69.8248)" stroke="black" stroke-width="1.88555"/>
<circle cx="104.188" cy="71.1023" r="4.24248" transform="rotate(-4.75818 104.188 71.1023)" fill="black"/>
<path d="M96.2013 83.1195C89.6637 84.1366 85.7101 82.1007 82.7742 80.926C76.4718 79.0853 70.3252 84.8001 73.417 93.5301C75.938 100.648 94.0287 97.9635 99.2924 97.5254C103.717 97.1571 106.093 97.3793 109.266 94.3971C109.672 94.0154 110.024 93.5757 110.32 93.1031C113.195 88.5024 112.848 85.5629 112.251 82.7298C111.774 80.4607 110.727 79.2845 108.798 78.9754C107.451 78.7596 106.131 79.3017 104.958 79.997C103.084 81.1072 100.451 82.4583 96.2013 83.1195Z" fill="black" stroke="black" stroke-width="1.88555" stroke-linecap="round"/>
<path d="M94.912 56.2649C97.0002 52.9376 101.646 43.9735 101.804 36.7706C103.33 36.1705 106.227 34.2265 105.601 31.2513" stroke="black" stroke-width="1.88555" stroke-linecap="round"/>
<path d="M98.2628 110.214C101.46 106.952 115.172 98.4949 118.147 102.41C121.121 106.325 120.298 115.002 119.515 118.851C121.76 117.403 126.562 114.859 127.814 116.269" stroke="black" stroke-width="1.88555" stroke-linecap="round"/>
<path d="M65.4717 114.058C68.8637 120.714 74.4884 141.689 65.4689 142.44C56.4495 143.19 49.2885 141.264 46.8354 140.207L47.3046 145.844" stroke="black" stroke-width="1.88555" stroke-linecap="round"/>
<path d="M14.1989 81.3811H31.1688" stroke="black" stroke-width="1.88555" stroke-linecap="round"/>
<path d="M1 87.9806H31.6401" stroke="black" stroke-width="1.88555" stroke-linecap="round"/>
<path d="M13.2561 105.422H33.9971" stroke="black" stroke-width="1.88555" stroke-linecap="round"/>
<ellipse cx="85.5" cy="158" rx="37.5" ry="7" fill="#D9D9D9"/>
<path d="M392.24 230.42C390.8 230.42 389.49 230.1 388.31 229.46C387.15 228.8 386.22 227.85 385.52 226.61C384.84 225.35 384.5 223.82 384.5 222.02V216.98C384.5 214.28 385.26 212.21 386.78 210.77C388.3 209.31 390.36 208.58 392.96 208.58C395.54 208.58 397.53 209.27 398.93 210.65C400.35 212.01 401.06 213.86 401.06 216.2V216.32H397.16V216.08C397.16 215.34 397 214.67 396.68 214.07C396.38 213.47 395.92 213 395.3 212.66C394.68 212.3 393.9 212.12 392.96 212.12C391.56 212.12 390.46 212.55 389.66 213.41C388.86 214.27 388.46 215.44 388.46 216.92V222.08C388.46 223.54 388.86 224.72 389.66 225.62C390.46 226.5 391.58 226.94 393.02 226.94C394.46 226.94 395.51 226.56 396.17 225.8C396.83 225.04 397.16 224.08 397.16 222.92V222.62H392.18V219.26H401.06V230H397.4V227.99H396.86C396.72 228.33 396.49 228.69 396.17 229.07C395.87 229.45 395.41 229.77 394.79 230.03C394.17 230.29 393.32 230.42 392.24 230.42ZM411.743 230.42C410.263 230.42 408.953 230.11 407.813 229.49C406.693 228.85 405.813 227.96 405.173 226.82C404.553 225.66 404.243 224.3 404.243 222.74V222.38C404.243 220.82 404.553 219.47 405.173 218.33C405.793 217.17 406.663 216.28 407.783 215.66C408.903 215.02 410.203 214.7 411.683 214.7C413.143 214.7 414.413 215.03 415.493 215.69C416.573 216.33 417.413 217.23 418.013 218.39C418.613 219.53 418.913 220.86 418.913 222.38V223.67H408.083C408.123 224.69 408.503 225.52 409.223 226.16C409.943 226.8 410.823 227.12 411.863 227.12C412.923 227.12 413.703 226.89 414.203 226.43C414.703 225.97 415.083 225.46 415.343 224.9L418.433 226.52C418.153 227.04 417.743 227.61 417.203 228.23C416.683 228.83 415.983 229.35 415.103 229.79C414.223 230.21 413.103 230.42 411.743 230.42ZM408.113 220.85H415.073C414.993 219.99 414.643 219.3 414.023 218.78C413.423 218.26 412.633 218 411.653 218C410.633 218 409.823 218.26 409.223 218.78C408.623 219.3 408.253 219.99 408.113 220.85ZM427.48 230C426.5 230 425.7 229.7 425.08 229.1C424.48 228.48 424.18 227.66 424.18 226.64V218.24H420.46V215.12H424.18V210.5H427.96V215.12H432.04V218.24H427.96V225.98C427.96 226.58 428.24 226.88 428.8 226.88H431.68V230H427.48ZM443.079 230V215.12H446.799V216.8H447.339C447.559 216.2 447.919 215.76 448.419 215.48C448.939 215.2 449.539 215.06 450.219 215.06H452.019V218.42H450.159C449.199 218.42 448.409 218.68 447.789 219.2C447.169 219.7 446.859 220.48 446.859 221.54V230H443.079ZM461.226 230.42C459.746 230.42 458.436 230.11 457.296 229.49C456.176 228.85 455.296 227.96 454.656 226.82C454.036 225.66 453.726 224.3 453.726 222.74V222.38C453.726 220.82 454.036 219.47 454.656 218.33C455.276 217.17 456.146 216.28 457.266 215.66C458.386 215.02 459.686 214.7 461.166 214.7C462.626 214.7 463.896 215.03 464.976 215.69C466.056 216.33 466.896 217.23 467.496 218.39C468.096 219.53 468.396 220.86 468.396 222.38V223.67H457.566C457.606 224.69 457.986 225.52 458.706 226.16C459.426 226.8 460.306 227.12 461.346 227.12C462.406 227.12 463.186 226.89 463.686 226.43C464.186 225.97 464.566 225.46 464.826 224.9L467.916 226.52C467.636 227.04 467.226 227.61 466.686 228.23C466.166 228.83 465.466 229.35 464.586 229.79C463.706 230.21 462.586 230.42 461.226 230.42ZM457.596 220.85H464.556C464.476 219.99 464.126 219.3 463.506 218.78C462.906 218.26 462.116 218 461.136 218C460.116 218 459.306 218.26 458.706 218.78C458.106 219.3 457.736 219.99 457.596 220.85ZM478.75 230.42C477.31 230.42 476 230.12 474.82 229.52C473.66 228.92 472.74 228.05 472.06 226.91C471.38 225.77 471.04 224.39 471.04 222.77V222.35C471.04 220.73 471.38 219.35 472.06 218.21C472.74 217.07 473.66 216.2 474.82 215.6C476 215 477.31 214.7 478.75 214.7C480.17 214.7 481.39 214.95 482.41 215.45C483.43 215.95 484.25 216.64 484.87 217.52C485.51 218.38 485.93 219.36 486.13 220.46L482.47 221.24C482.39 220.64 482.21 220.1 481.93 219.62C481.65 219.14 481.25 218.76 480.73 218.48C480.23 218.2 479.6 218.06 478.84 218.06C478.08 218.06 477.39 218.23 476.77 218.57C476.17 218.89 475.69 219.38 475.33 220.04C474.99 220.68 474.82 221.47 474.82 222.41V222.71C474.82 223.65 474.99 224.45 475.33 225.11C475.69 225.75 476.17 226.24 476.77 226.58C477.39 226.9 478.08 227.06 478.84 227.06C479.98 227.06 480.84 226.77 481.42 226.19C482.02 225.59 482.4 224.81 482.56 223.85L486.22 224.72C485.96 225.78 485.51 226.75 484.87 227.63C484.25 228.49 483.43 229.17 482.41 229.67C481.39 230.17 480.17 230.42 478.75 230.42ZM496.418 230.42C494.938 230.42 493.608 230.12 492.428 229.52C491.248 228.92 490.318 228.05 489.638 226.91C488.958 225.77 488.618 224.4 488.618 222.8V222.32C488.618 220.72 488.958 219.35 489.638 218.21C490.318 217.07 491.248 216.2 492.428 215.6C493.608 215 494.938 214.7 496.418 214.7C497.898 214.7 499.228 215 500.408 215.6C501.588 216.2 502.518 217.07 503.198 218.21C503.878 219.35 504.218 220.72 504.218 222.32V222.8C504.218 224.4 503.878 225.77 503.198 226.91C502.518 228.05 501.588 228.92 500.408 229.52C499.228 230.12 497.898 230.42 496.418 230.42ZM496.418 227.06C497.578 227.06 498.538 226.69 499.298 225.95C500.058 225.19 500.438 224.11 500.438 222.71V222.41C500.438 221.01 500.058 219.94 499.298 219.2C498.558 218.44 497.598 218.06 496.418 218.06C495.258 218.06 494.298 218.44 493.538 219.2C492.778 219.94 492.398 221.01 492.398 222.41V222.71C492.398 224.11 492.778 225.19 493.538 225.95C494.298 226.69 495.258 227.06 496.418 227.06ZM507.707 230V215.12H511.427V216.74H511.967C512.227 216.24 512.657 215.81 513.257 215.45C513.857 215.07 514.647 214.88 515.627 214.88C516.687 214.88 517.537 215.09 518.177 215.51C518.817 215.91 519.307 216.44 519.647 217.1H520.187C520.527 216.46 521.007 215.93 521.627 215.51C522.247 215.09 523.127 214.88 524.267 214.88C525.187 214.88 526.017 215.08 526.757 215.48C527.517 215.86 528.117 216.45 528.557 217.25C529.017 218.03 529.247 219.02 529.247 220.22V230H525.467V220.49C525.467 219.67 525.257 219.06 524.837 218.66C524.417 218.24 523.827 218.03 523.067 218.03C522.207 218.03 521.537 218.31 521.057 218.87C520.597 219.41 520.367 220.19 520.367 221.21V230H516.587V220.49C516.587 219.67 516.377 219.06 515.957 218.66C515.537 218.24 514.947 218.03 514.187 218.03C513.327 218.03 512.657 218.31 512.177 218.87C511.717 219.41 511.487 220.19 511.487 221.21V230H507.707ZM533.313 230V215.12H537.033V216.74H537.573C537.833 216.24 538.263 215.81 538.863 215.45C539.463 215.07 540.253 214.88 541.233 214.88C542.293 214.88 543.143 215.09 543.783 215.51C544.423 215.91 544.913 216.44 545.253 217.1H545.793C546.133 216.46 546.613 215.93 547.233 215.51C547.853 215.09 548.733 214.88 549.873 214.88C550.793 214.88 551.623 215.08 552.363 215.48C553.123 215.86 553.723 216.45 554.163 217.25C554.623 218.03 554.853 219.02 554.853 220.22V230H551.073V220.49C551.073 219.67 550.863 219.06 550.443 218.66C550.023 218.24 549.433 218.03 548.673 218.03C547.813 218.03 547.143 218.31 546.663 218.87C546.203 219.41 545.973 220.19 545.973 221.21V230H542.193V220.49C542.193 219.67 541.983 219.06 541.563 218.66C541.143 218.24 540.553 218.03 539.793 218.03C538.933 218.03 538.263 218.31 537.783 218.87C537.323 219.41 537.093 220.19 537.093 221.21V230H533.313ZM565.698 230.42C564.218 230.42 562.908 230.11 561.768 229.49C560.648 228.85 559.768 227.96 559.128 226.82C558.508 225.66 558.198 224.3 558.198 222.74V222.38C558.198 220.82 558.508 219.47 559.128 218.33C559.748 217.17 560.618 216.28 561.738 215.66C562.858 215.02 564.158 214.7 565.638 214.7C567.098 214.7 568.368 215.03 569.448 215.69C570.528 216.33 571.368 217.23 571.968 218.39C572.568 219.53 572.868 220.86 572.868 222.38V223.67H562.038C562.078 224.69 562.458 225.52 563.178 226.16C563.898 226.8 564.778 227.12 565.818 227.12C566.878 227.12 567.658 226.89 568.158 226.43C568.658 225.97 569.038 225.46 569.298 224.9L572.388 226.52C572.108 227.04 571.698 227.61 571.158 228.23C570.638 228.83 569.938 229.35 569.058 229.79C568.178 230.21 567.058 230.42 565.698 230.42ZM562.068 220.85H569.028C568.948 219.99 568.598 219.3 567.978 218.78C567.378 218.26 566.588 218 565.608 218C564.588 218 563.778 218.26 563.178 218.78C562.578 219.3 562.208 219.99 562.068 220.85ZM576.233 230V215.12H579.953V217.07H580.493C580.733 216.55 581.183 216.06 581.843 215.6C582.503 215.12 583.503 214.88 584.843 214.88C586.003 214.88 587.013 215.15 587.873 215.69C588.753 216.21 589.433 216.94 589.913 217.88C590.393 218.8 590.633 219.88 590.633 221.12V230H586.853V221.42C586.853 220.3 586.573 219.46 586.013 218.9C585.473 218.34 584.693 218.06 583.673 218.06C582.513 218.06 581.613 218.45 580.973 219.23C580.333 219.99 580.013 221.06 580.013 222.44V230H576.233ZM600.719 230.42C599.539 230.42 598.429 230.13 597.389 229.55C596.369 228.95 595.549 228.08 594.929 226.94C594.309 225.8 593.999 224.42 593.999 222.8V222.32C593.999 220.7 594.309 219.32 594.929 218.18C595.549 217.04 596.369 216.18 597.389 215.6C598.409 215 599.519 214.7 600.719 214.7C601.619 214.7 602.369 214.81 602.969 215.03C603.589 215.23 604.089 215.49 604.469 215.81C604.849 216.13 605.139 216.47 605.339 216.83H605.879V209H609.659V230H605.939V228.2H605.399C605.059 228.76 604.529 229.27 603.809 229.73C603.109 230.19 602.079 230.42 600.719 230.42ZM601.859 227.12C603.019 227.12 603.989 226.75 604.769 226.01C605.549 225.25 605.939 224.15 605.939 222.71V222.41C605.939 220.97 605.549 219.88 604.769 219.14C604.009 218.38 603.039 218 601.859 218C600.699 218 599.729 218.38 598.949 219.14C598.169 219.88 597.779 220.97 597.779 222.41V222.71C597.779 224.15 598.169 225.25 598.949 226.01C599.729 226.75 600.699 227.12 601.859 227.12ZM618.47 230.42C617.41 230.42 616.46 230.24 615.62 229.88C614.78 229.5 614.11 228.96 613.61 228.26C613.13 227.54 612.89 226.67 612.89 225.65C612.89 224.63 613.13 223.78 613.61 223.1C614.11 222.4 614.79 221.88 615.65 221.54C616.53 221.18 617.53 221 618.65 221H622.73V220.16C622.73 219.46 622.51 218.89 622.07 218.45C621.63 217.99 620.93 217.76 619.97 217.76C619.03 217.76 618.33 217.98 617.87 218.42C617.41 218.84 617.11 219.39 616.97 220.07L613.49 218.9C613.73 218.14 614.11 217.45 614.63 216.83C615.17 216.19 615.88 215.68 616.76 215.3C617.66 214.9 618.75 214.7 620.03 214.7C621.99 214.7 623.54 215.19 624.68 216.17C625.82 217.15 626.39 218.57 626.39 220.43V225.98C626.39 226.58 626.67 226.88 627.23 226.88H628.43V230H625.91C625.17 230 624.56 229.82 624.08 229.46C623.6 229.1 623.36 228.62 623.36 228.02V227.99H622.79C622.71 228.23 622.53 228.55 622.25 228.95C621.97 229.33 621.53 229.67 620.93 229.97C620.33 230.27 619.51 230.42 618.47 230.42ZM619.13 227.36C620.19 227.36 621.05 227.07 621.71 226.49C622.39 225.89 622.73 225.1 622.73 224.12V223.82H618.92C618.22 223.82 617.67 223.97 617.27 224.27C616.87 224.57 616.67 224.99 616.67 225.53C616.67 226.07 616.88 226.51 617.3 226.85C617.72 227.19 618.33 227.36 619.13 227.36ZM635.81 230C634.83 230 634.03 229.7 633.41 229.1C632.81 228.48 632.51 227.66 632.51 226.64V218.24H628.79V215.12H632.51V210.5H636.29V215.12H640.37V218.24H636.29V225.98C636.29 226.58 636.57 226.88 637.13 226.88H640.01V230H635.81ZM643.791 230V215.12H647.571V230H643.791ZM645.681 213.38C645.001 213.38 644.421 213.16 643.941 212.72C643.481 212.28 643.251 211.7 643.251 210.98C643.251 210.26 643.481 209.68 643.941 209.24C644.421 208.8 645.001 208.58 645.681 208.58C646.381 208.58 646.961 208.8 647.421 209.24C647.881 209.68 648.111 210.26 648.111 210.98C648.111 211.7 647.881 212.28 647.421 212.72C646.961 213.16 646.381 213.38 645.681 213.38ZM658.84 230.42C657.36 230.42 656.03 230.12 654.85 229.52C653.67 228.92 652.74 228.05 652.06 226.91C651.38 225.77 651.04 224.4 651.04 222.8V222.32C651.04 220.72 651.38 219.35 652.06 218.21C652.74 217.07 653.67 216.2 654.85 215.6C656.03 215 657.36 214.7 658.84 214.7C660.32 214.7 661.65 215 662.83 215.6C664.01 216.2 664.94 217.07 665.62 218.21C666.3 219.35 666.64 220.72 666.64 222.32V222.8C666.64 224.4 666.3 225.77 665.62 226.91C664.94 228.05 664.01 228.92 662.83 229.52C661.65 230.12 660.32 230.42 658.84 230.42ZM658.84 227.06C660 227.06 660.96 226.69 661.72 225.95C662.48 225.19 662.86 224.11 662.86 222.71V222.41C662.86 221.01 662.48 219.94 661.72 219.2C660.98 218.44 660.02 218.06 658.84 218.06C657.68 218.06 656.72 218.44 655.96 219.2C655.2 219.94 654.82 221.01 654.82 222.41V222.71C654.82 224.11 655.2 225.19 655.96 225.95C656.72 226.69 657.68 227.06 658.84 227.06ZM670.129 230V215.12H673.849V217.07H674.389C674.629 216.55 675.079 216.06 675.739 215.6C676.399 215.12 677.399 214.88 678.739 214.88C679.899 214.88 680.909 215.15 681.769 215.69C682.649 216.21 683.329 216.94 683.809 217.88C684.289 218.8 684.529 219.88 684.529 221.12V230H680.749V221.42C680.749 220.3 680.469 219.46 679.909 218.9C679.369 218.34 678.589 218.06 677.569 218.06C676.409 218.06 675.509 218.45 674.869 219.23C674.229 219.99 673.909 221.06 673.909 222.44V230H670.129ZM694.796 230.42C692.856 230.42 691.266 230 690.026 229.16C688.786 228.32 688.036 227.12 687.776 225.56L691.256 224.66C691.396 225.36 691.626 225.91 691.946 226.31C692.286 226.71 692.696 227 693.176 227.18C693.676 227.34 694.216 227.42 694.796 227.42C695.676 227.42 696.326 227.27 696.746 226.97C697.166 226.65 697.376 226.26 697.376 225.8C697.376 225.34 697.176 224.99 696.776 224.75C696.376 224.49 695.736 224.28 694.856 224.12L694.016 223.97C692.976 223.77 692.026 223.5 691.166 223.16C690.306 222.8 689.616 222.31 689.096 221.69C688.576 221.07 688.316 220.27 688.316 219.29C688.316 217.81 688.856 216.68 689.936 215.9C691.016 215.1 692.436 214.7 694.196 214.7C695.856 214.7 697.236 215.07 698.336 215.81C699.436 216.55 700.156 217.52 700.496 218.72L696.986 219.8C696.826 219.04 696.496 218.5 695.996 218.18C695.516 217.86 694.916 217.7 694.196 217.7C693.476 217.7 692.926 217.83 692.546 218.09C692.166 218.33 691.976 218.67 691.976 219.11C691.976 219.59 692.176 219.95 692.576 220.19C692.976 220.41 693.516 220.58 694.196 220.7L695.036 220.85C696.156 221.05 697.166 221.32 698.066 221.66C698.986 221.98 699.706 222.45 700.226 223.07C700.766 223.67 701.036 224.49 701.036 225.53C701.036 227.09 700.466 228.3 699.326 229.16C698.206 230 696.696 230.42 694.796 230.42Z" fill="black"/>
<path d="M427.47 266V255.545H430.68C432.645 255.545 433.8 256.505 433.8 258.155C433.8 259.235 433.305 260.06 432.42 260.435C433.665 260.75 434.34 261.68 434.34 263.075C434.34 264.95 433.14 266 430.995 266H427.47ZM428.535 260.105H430.89C432.045 260.105 432.735 259.43 432.735 258.335C432.735 257.195 431.985 256.535 430.68 256.535H428.535V260.105ZM428.535 265.01H430.92C432.42 265.01 433.26 264.29 433.26 262.985C433.26 261.755 432.51 261.035 431.205 261.035H428.535V265.01ZM439.109 258.485C440.969 258.485 442.049 259.55 442.049 261.395V266H441.104L441.044 264.86C440.459 265.685 439.559 266.12 438.389 266.12C436.784 266.12 435.839 265.28 435.839 263.855C435.839 263.105 436.139 262.535 436.679 262.205C437.249 261.875 438.044 261.74 439.499 261.74H441.014V261.395C441.014 260.105 440.339 259.4 439.094 259.4C438.164 259.4 437.444 259.805 436.844 260.63L436.094 260C436.889 258.965 437.849 258.485 439.109 258.485ZM438.689 265.265C440.114 265.265 441.014 264.26 441.014 262.685V262.58H439.589C438.224 262.58 437.639 262.67 437.279 262.955C437.009 263.165 436.874 263.495 436.874 263.915C436.874 264.74 437.579 265.265 438.689 265.265ZM446.807 266.12C445.352 266.12 444.167 265.37 443.777 264.185L444.647 263.795C444.917 264.56 445.637 265.205 446.792 265.205C447.797 265.205 448.442 264.71 448.442 263.93C448.442 261.965 444.182 263.195 444.182 260.57C444.182 259.28 445.232 258.485 446.717 258.485C447.902 258.485 448.862 258.98 449.372 260.03L448.547 260.48C448.187 259.82 447.602 259.4 446.687 259.4C445.772 259.4 445.187 259.775 445.187 260.42C445.187 262.175 449.462 261.065 449.462 263.87C449.462 265.37 448.232 266.12 446.807 266.12ZM457.381 261.935C457.381 262.145 457.366 262.4 457.336 262.58H451.921C451.951 264.2 452.851 265.175 454.306 265.175C455.116 265.175 455.761 264.965 456.436 264.245L457.156 264.875C456.286 265.79 455.431 266.12 454.291 266.12C452.041 266.12 450.886 264.44 450.886 262.34C450.886 260.255 452.026 258.485 454.171 258.485C456.436 258.485 457.381 260.255 457.381 261.935ZM454.171 259.355C452.836 259.355 452.011 260.405 451.921 261.71H456.391C456.391 261.68 456.376 261.605 456.376 261.47C456.301 260.27 455.536 259.355 454.171 259.355ZM464.614 255.545H465.649V266H464.614V265.01C464.074 265.7 463.249 266.12 462.169 266.12C460.009 266.12 458.884 264.5 458.884 262.295C458.884 259.985 460.114 258.47 462.169 258.47C463.219 258.47 464.059 258.875 464.614 259.595V255.545ZM462.319 265.205C463.879 265.205 464.704 263.975 464.704 262.295C464.704 260.54 463.804 259.385 462.319 259.385C460.819 259.385 459.919 260.54 459.919 262.295C459.919 263.975 460.744 265.205 462.319 265.205ZM475.372 266.12C473.257 266.12 471.832 264.485 471.832 262.295C471.832 260.105 473.257 258.485 475.372 258.485C477.472 258.485 478.927 260.105 478.927 262.295C478.927 264.47 477.487 266.12 475.372 266.12ZM475.372 265.205C476.962 265.205 477.892 263.945 477.892 262.295C477.892 260.615 476.947 259.4 475.372 259.4C473.782 259.4 472.867 260.63 472.867 262.295C472.867 263.975 473.797 265.205 475.372 265.205ZM484.497 258.485C486.087 258.485 486.912 259.505 486.912 261.47V266H485.877V261.725C485.877 260.135 485.367 259.4 484.257 259.4C482.862 259.4 482.052 260.6 482.052 262.685V266H481.017V258.605H482.052V259.685C482.532 258.935 483.432 258.485 484.497 258.485ZM494.381 269.06L495.611 265.91L492.476 258.605H493.616L496.166 264.695L498.401 258.605H499.541L495.491 269.06H494.381ZM503.819 266.12C501.704 266.12 500.279 264.485 500.279 262.295C500.279 260.105 501.704 258.485 503.819 258.485C505.919 258.485 507.374 260.105 507.374 262.295C507.374 264.47 505.934 266.12 503.819 266.12ZM503.819 265.205C505.409 265.205 506.339 263.945 506.339 262.295C506.339 260.615 505.394 259.4 503.819 259.4C502.229 259.4 501.314 260.63 501.314 262.295C501.314 263.975 502.244 265.205 503.819 265.205ZM514.071 258.605H515.106V266H514.071V264.935C513.546 265.73 512.601 266.12 511.626 266.12C509.946 266.12 509.211 264.965 509.211 263.135V258.605H510.246V262.88C510.246 264.08 510.456 265.205 511.866 265.205C513.336 265.205 514.071 263.93 514.071 262.01V258.605ZM521.068 258.485C521.518 258.485 521.938 258.575 522.343 258.8L521.833 259.64C521.488 259.49 521.173 259.415 520.858 259.415C519.718 259.415 518.878 260.27 518.878 261.875V266H517.843V258.605H518.878V259.715C519.418 258.74 520.318 258.485 521.068 258.485ZM529.33 266.12C528.475 266.12 527.92 265.55 527.92 264.395V255.545H528.955V264.335C528.955 264.845 529.135 265.175 529.63 265.175C529.855 265.175 530.11 265.115 530.335 265.04L530.35 265.925C530.035 266.03 529.66 266.12 529.33 266.12ZM534.918 266.12C532.803 266.12 531.378 264.485 531.378 262.295C531.378 260.105 532.803 258.485 534.918 258.485C537.018 258.485 538.473 260.105 538.473 262.295C538.473 264.47 537.033 266.12 534.918 266.12ZM534.918 265.205C536.508 265.205 537.438 263.945 537.438 262.295C537.438 260.615 536.493 259.4 534.918 259.4C533.328 259.4 532.413 260.63 532.413 262.295C532.413 263.975 533.343 265.205 534.918 265.205ZM543.293 266.12C541.148 266.12 539.948 264.38 539.948 262.325C539.948 260.375 541.043 258.485 543.278 258.485C544.598 258.485 545.693 259.145 546.278 260.525L545.288 260.915C544.943 259.97 544.208 259.4 543.278 259.4C541.703 259.4 540.998 260.81 540.998 262.325C540.998 263.84 541.703 265.205 543.293 265.205C544.223 265.205 544.958 264.65 545.243 263.705L546.203 264.065C545.708 265.415 544.628 266.12 543.293 266.12ZM550.672 258.485C552.532 258.485 553.612 259.55 553.612 261.395V266H552.667L552.607 264.86C552.022 265.685 551.122 266.12 549.952 266.12C548.347 266.12 547.402 265.28 547.402 263.855C547.402 263.105 547.702 262.535 548.242 262.205C548.812 261.875 549.607 261.74 551.062 261.74H552.577V261.395C552.577 260.105 551.902 259.4 550.657 259.4C549.727 259.4 549.007 259.805 548.407 260.63L547.657 260C548.452 258.965 549.412 258.485 550.672 258.485ZM550.252 265.265C551.677 265.265 552.577 264.26 552.577 262.685V262.58H551.152C549.787 262.58 549.202 262.67 548.842 262.955C548.572 263.165 548.437 263.495 548.437 263.915C548.437 264.74 549.142 265.265 550.252 265.265ZM559.194 265.01L559.209 265.925C558.819 266.045 558.429 266.12 558.084 266.12C557.094 266.12 556.374 265.565 556.374 264.26V259.475H555.144V258.605H556.374V256.685L557.409 255.905V258.605H559.194V259.475H557.409V264.125C557.409 264.845 557.739 265.175 558.324 265.175C558.579 265.175 558.864 265.115 559.194 265.01ZM561.083 257.075V255.545H562.283V257.075H561.083ZM561.173 266V258.605H562.208V266H561.173ZM567.833 266.12C565.718 266.12 564.293 264.485 564.293 262.295C564.293 260.105 565.718 258.485 567.833 258.485C569.933 258.485 571.388 260.105 571.388 262.295C571.388 264.47 569.948 266.12 567.833 266.12ZM567.833 265.205C569.423 265.205 570.353 263.945 570.353 262.295C570.353 260.615 569.408 259.4 567.833 259.4C566.243 259.4 565.328 260.63 565.328 262.295C565.328 263.975 566.258 265.205 567.833 265.205ZM576.958 258.485C578.548 258.485 579.373 259.505 579.373 261.47V266H578.338V261.725C578.338 260.135 577.828 259.4 576.718 259.4C575.323 259.4 574.513 260.6 574.513 262.685V266H573.478V258.605H574.513V259.685C574.993 258.935 575.893 258.485 576.958 258.485ZM581.795 268.325L583.145 264.065H584.48L582.5 268.325H581.795ZM596.128 255.545H597.163V266H596.128V265.01C595.588 265.7 594.763 266.12 593.683 266.12C591.523 266.12 590.398 264.5 590.398 262.295C590.398 259.985 591.628 258.47 593.683 258.47C594.733 258.47 595.573 258.875 596.128 259.595V255.545ZM593.833 265.205C595.393 265.205 596.218 263.975 596.218 262.295C596.218 260.54 595.318 259.385 593.833 259.385C592.333 259.385 591.433 260.54 591.433 262.295C591.433 263.975 592.258 265.205 593.833 265.205ZM599.799 257.075V255.545H600.999V257.075H599.799ZM599.889 266V258.605H600.924V266H599.889ZM609.549 261.935C609.549 262.145 609.534 262.4 609.504 262.58H604.089C604.119 264.2 605.019 265.175 606.474 265.175C607.284 265.175 607.929 264.965 608.604 264.245L609.324 264.875C608.454 265.79 607.599 266.12 606.459 266.12C604.209 266.12 603.054 264.44 603.054 262.34C603.054 260.255 604.194 258.485 606.339 258.485C608.604 258.485 609.549 260.255 609.549 261.935ZM606.339 259.355C605.004 259.355 604.179 260.405 604.089 261.71H608.559C608.559 261.68 608.544 261.605 608.544 261.47C608.469 260.27 607.704 259.355 606.339 259.355ZM614.697 265.01L614.712 265.925C614.322 266.045 613.932 266.12 613.587 266.12C612.597 266.12 611.877 265.565 611.877 264.26V259.475H610.647V258.605H611.877V256.685L612.912 255.905V258.605H614.697V259.475H612.912V264.125C612.912 264.845 613.242 265.175 613.827 265.175C614.082 265.175 614.367 265.115 614.697 265.01ZM619.241 258.485C621.101 258.485 622.181 259.55 622.181 261.395V266H621.236L621.176 264.86C620.591 265.685 619.691 266.12 618.521 266.12C616.916 266.12 615.971 265.28 615.971 263.855C615.971 263.105 616.271 262.535 616.811 262.205C617.381 261.875 618.176 261.74 619.631 261.74H621.146V261.395C621.146 260.105 620.471 259.4 619.226 259.4C618.296 259.4 617.576 259.805 616.976 260.63L616.226 260C617.021 258.965 617.981 258.485 619.241 258.485ZM618.821 265.265C620.246 265.265 621.146 264.26 621.146 262.685V262.58H619.721C618.356 262.58 617.771 262.67 617.411 262.955C617.141 263.165 617.006 263.495 617.006 263.915C617.006 264.74 617.711 265.265 618.821 265.265ZM627.928 258.485C628.378 258.485 628.798 258.575 629.203 258.8L628.693 259.64C628.348 259.49 628.033 259.415 627.718 259.415C626.578 259.415 625.738 260.27 625.738 261.875V266H624.703V258.605H625.738V259.715C626.278 258.74 627.178 258.485 627.928 258.485ZM631.768 269.06L632.998 265.91L629.863 258.605H631.003L633.553 264.695L635.788 258.605H636.928L632.878 269.06H631.768ZM421.503 278.485C421.953 278.485 422.373 278.575 422.778 278.8L422.268 279.64C421.923 279.49 421.608 279.415 421.293 279.415C420.153 279.415 419.313 280.27 419.313 281.875V286H418.278V278.605H419.313V279.715C419.853 278.74 420.753 278.485 421.503 278.485ZM429.534 281.935C429.534 282.145 429.519 282.4 429.489 282.58H424.074C424.104 284.2 425.004 285.175 426.459 285.175C427.269 285.175 427.914 284.965 428.589 284.245L429.309 284.875C428.439 285.79 427.584 286.12 426.444 286.12C424.194 286.12 423.039 284.44 423.039 282.34C423.039 280.255 424.179 278.485 426.324 278.485C428.589 278.485 429.534 280.255 429.534 281.935ZM426.324 279.355C424.989 279.355 424.164 280.405 424.074 281.71H428.544C428.544 281.68 428.529 281.605 428.529 281.47C428.454 280.27 427.689 279.355 426.324 279.355ZM433.857 286.12C432.402 286.12 431.217 285.37 430.827 284.185L431.697 283.795C431.967 284.56 432.687 285.205 433.842 285.205C434.847 285.205 435.492 284.71 435.492 283.93C435.492 281.965 431.232 283.195 431.232 280.57C431.232 279.28 432.282 278.485 433.767 278.485C434.952 278.485 435.912 278.98 436.422 280.03L435.597 280.48C435.237 279.82 434.652 279.4 433.737 279.4C432.822 279.4 432.237 279.775 432.237 280.42C432.237 282.175 436.512 281.065 436.512 283.87C436.512 285.37 435.282 286.12 433.857 286.12ZM441.67 285.01L441.685 285.925C441.295 286.045 440.905 286.12 440.56 286.12C439.57 286.12 438.85 285.565 438.85 284.26V279.475H437.62V278.605H438.85V276.685L439.885 275.905V278.605H441.67V279.475H439.885V284.125C439.885 284.845 440.215 285.175 440.8 285.175C441.055 285.175 441.34 285.115 441.67 285.01ZM446.727 278.485C447.177 278.485 447.597 278.575 448.002 278.8L447.492 279.64C447.147 279.49 446.832 279.415 446.517 279.415C445.377 279.415 444.537 280.27 444.537 281.875V286H443.502V278.605H444.537V279.715C445.077 278.74 445.977 278.485 446.727 278.485ZM449.447 277.075V275.545H450.647V277.075H449.447ZM449.537 286V278.605H450.572V286H449.537ZM456.032 286.12C453.887 286.12 452.687 284.38 452.687 282.325C452.687 280.375 453.782 278.485 456.017 278.485C457.337 278.485 458.432 279.145 459.017 280.525L458.027 280.915C457.682 279.97 456.947 279.4 456.017 279.4C454.442 279.4 453.737 280.81 453.737 282.325C453.737 283.84 454.442 285.205 456.032 285.205C456.962 285.205 457.697 284.65 457.982 283.705L458.942 284.065C458.447 285.415 457.367 286.12 456.032 286.12ZM463.979 285.01L463.994 285.925C463.604 286.045 463.214 286.12 462.869 286.12C461.879 286.12 461.159 285.565 461.159 284.26V279.475H459.929V278.605H461.159V276.685L462.194 275.905V278.605H463.979V279.475H462.194V284.125C462.194 284.845 462.524 285.175 463.109 285.175C463.364 285.175 463.649 285.115 463.979 285.01ZM465.868 277.075V275.545H467.068V277.075H465.868ZM465.958 286V278.605H466.993V286H465.958ZM472.618 286.12C470.503 286.12 469.078 284.485 469.078 282.295C469.078 280.105 470.503 278.485 472.618 278.485C474.718 278.485 476.173 280.105 476.173 282.295C476.173 284.47 474.733 286.12 472.618 286.12ZM472.618 285.205C474.208 285.205 475.138 283.945 475.138 282.295C475.138 280.615 474.193 279.4 472.618 279.4C471.028 279.4 470.113 280.63 470.113 282.295C470.113 283.975 471.043 285.205 472.618 285.205ZM481.743 278.485C483.333 278.485 484.158 279.505 484.158 281.47V286H483.123V281.725C483.123 280.135 482.613 279.4 481.503 279.4C480.108 279.4 479.298 280.6 479.298 282.685V286H478.263V278.605H479.298V279.685C479.778 278.935 480.678 278.485 481.743 278.485ZM488.95 286.12C487.495 286.12 486.31 285.37 485.92 284.185L486.79 283.795C487.06 284.56 487.78 285.205 488.935 285.205C489.94 285.205 490.585 284.71 490.585 283.93C490.585 281.965 486.325 283.195 486.325 280.57C486.325 279.28 487.375 278.485 488.86 278.485C490.045 278.485 491.005 278.98 491.515 280.03L490.69 280.48C490.33 279.82 489.745 279.4 488.83 279.4C487.915 279.4 487.33 279.775 487.33 280.42C487.33 282.175 491.605 281.065 491.605 283.87C491.605 285.37 490.375 286.12 488.95 286.12ZM493.567 288.325L494.917 284.065H496.252L494.272 288.325H493.567ZM505.32 278.485C507.18 278.485 508.26 279.55 508.26 281.395V286H507.315L507.255 284.86C506.67 285.685 505.77 286.12 504.6 286.12C502.995 286.12 502.05 285.28 502.05 283.855C502.05 283.105 502.35 282.535 502.89 282.205C503.46 281.875 504.255 281.74 505.71 281.74H507.225V281.395C507.225 280.105 506.55 279.4 505.305 279.4C504.375 279.4 503.655 279.805 503.055 280.63L502.305 280C503.1 278.965 504.06 278.485 505.32 278.485ZM504.9 285.265C506.325 285.265 507.225 284.26 507.225 282.685V282.58H505.8C504.435 282.58 503.85 282.67 503.49 282.955C503.22 283.165 503.085 283.495 503.085 283.915C503.085 284.74 503.79 285.265 504.9 285.265ZM514.262 278.485C515.852 278.485 516.677 279.505 516.677 281.47V286H515.642V281.725C515.642 280.135 515.132 279.4 514.022 279.4C512.627 279.4 511.817 280.6 511.817 282.685V286H510.782V278.605H511.817V279.685C512.297 278.935 513.197 278.485 514.262 278.485ZM524.38 275.545H525.415V286H524.38V285.01C523.84 285.7 523.015 286.12 521.935 286.12C519.775 286.12 518.65 284.5 518.65 282.295C518.65 279.985 519.88 278.47 521.935 278.47C522.985 278.47 523.825 278.875 524.38 279.595V275.545ZM522.085 285.205C523.645 285.205 524.47 283.975 524.47 282.295C524.47 280.54 523.57 279.385 522.085 279.385C520.585 279.385 519.685 280.54 519.685 282.295C519.685 283.975 520.51 285.205 522.085 285.205ZM534.792 285.1C536.262 285.325 538.002 285.535 538.002 287.14C538.002 288.535 536.697 289.18 534.837 289.18C532.782 289.18 531.537 288.37 531.537 286.9C531.537 286.75 531.552 286.66 531.567 286.57L532.767 285.55C532.197 285.295 531.807 284.875 531.807 284.14C531.807 283.54 532.077 283.09 532.602 282.73C532.212 282.28 531.972 281.71 531.972 281.05C531.972 279.55 533.202 278.485 534.792 278.485C535.512 278.485 536.157 278.71 536.637 279.085L537.657 278.2L538.197 278.875L537.192 279.715C537.447 280.12 537.597 280.585 537.597 281.11C537.597 282.625 536.367 283.63 534.807 283.63C534.237 283.63 533.712 283.495 533.277 283.255C532.977 283.42 532.797 283.69 532.797 284.005C532.797 284.755 533.727 284.935 534.792 285.1ZM534.807 279.355C533.757 279.355 532.992 280.06 532.992 281.08C532.992 282.04 533.682 282.775 534.792 282.775C535.902 282.775 536.562 282.055 536.562 281.08C536.562 280.06 535.872 279.355 534.807 279.355ZM534.882 288.31C536.187 288.31 536.967 287.95 536.967 287.23C536.967 286.33 535.797 286.195 534.567 286C534.237 285.955 533.892 285.895 533.577 285.82L532.572 286.795C532.557 286.87 532.557 286.9 532.557 286.93C532.557 287.98 533.622 288.31 534.882 288.31ZM543.29 278.485C543.74 278.485 544.16 278.575 544.565 278.8L544.055 279.64C543.71 279.49 543.395 279.415 543.08 279.415C541.94 279.415 541.1 280.27 541.1 281.875V286H540.065V278.605H541.1V279.715C541.64 278.74 542.54 278.485 543.29 278.485ZM548.321 286.12C546.206 286.12 544.781 284.485 544.781 282.295C544.781 280.105 546.206 278.485 548.321 278.485C550.421 278.485 551.876 280.105 551.876 282.295C551.876 284.47 550.436 286.12 548.321 286.12ZM548.321 285.205C549.911 285.205 550.841 283.945 550.841 282.295C550.841 280.615 549.896 279.4 548.321 279.4C546.731 279.4 545.816 280.63 545.816 282.295C545.816 283.975 546.746 285.205 548.321 285.205ZM558.573 278.605H559.608V286H558.573V284.935C558.048 285.73 557.103 286.12 556.128 286.12C554.448 286.12 553.713 284.965 553.713 283.135V278.605H554.748V282.88C554.748 284.08 554.958 285.205 556.368 285.205C557.838 285.205 558.573 283.93 558.573 282.01V278.605ZM565.825 278.47C567.88 278.47 569.11 279.985 569.11 282.295C569.11 284.5 567.985 286.12 565.825 286.12C564.745 286.12 563.92 285.7 563.38 285.01V289.06H562.345V278.605H563.38V279.595C563.935 278.875 564.775 278.47 565.825 278.47ZM565.675 285.205C567.25 285.205 568.075 283.975 568.075 282.295C568.075 280.54 567.175 279.385 565.675 279.385C564.19 279.385 563.29 280.54 563.29 282.295C563.29 283.975 564.115 285.205 565.675 285.205ZM575.803 286V279.475H574.243V278.605H575.818V277.465C575.818 275.89 576.733 275.425 577.678 275.425C578.083 275.425 578.533 275.515 578.998 275.71L578.638 276.535C578.323 276.385 578.038 276.295 577.783 276.295C577.198 276.295 576.838 276.7 576.838 277.39V278.605H578.968V279.475H576.838V286H575.803ZM582.928 278.485C584.788 278.485 585.868 279.55 585.868 281.395V286H584.923L584.863 284.86C584.278 285.685 583.378 286.12 582.208 286.12C580.603 286.12 579.658 285.28 579.658 283.855C579.658 283.105 579.958 282.535 580.498 282.205C581.068 281.875 581.863 281.74 583.318 281.74H584.833V281.395C584.833 280.105 584.158 279.4 582.913 279.4C581.983 279.4 581.263 279.805 580.663 280.63L579.913 280C580.708 278.965 581.668 278.485 582.928 278.485ZM582.508 285.265C583.933 285.265 584.833 284.26 584.833 282.685V282.58H583.408C582.043 282.58 581.458 282.67 581.098 282.955C580.828 283.165 580.693 283.495 580.693 283.915C580.693 284.74 581.398 285.265 582.508 285.265ZM590.34 286L587.325 278.605H588.45L590.775 284.68L593.115 278.605H594.255L591.225 286H590.34ZM598.594 286.12C596.479 286.12 595.054 284.485 595.054 282.295C595.054 280.105 596.479 278.485 598.594 278.485C600.694 278.485 602.149 280.105 602.149 282.295C602.149 284.47 600.709 286.12 598.594 286.12ZM598.594 285.205C600.184 285.205 601.114 283.945 601.114 282.295C601.114 280.615 600.169 279.4 598.594 279.4C597.004 279.4 596.089 280.63 596.089 282.295C596.089 283.975 597.019 285.205 598.594 285.205ZM608.846 278.605H609.881V286H608.846V284.935C608.321 285.73 607.376 286.12 606.401 286.12C604.721 286.12 603.986 284.965 603.986 283.135V278.605H605.021V282.88C605.021 284.08 605.231 285.205 606.641 285.205C608.111 285.205 608.846 283.93 608.846 282.01V278.605ZM615.843 278.485C616.293 278.485 616.713 278.575 617.118 278.8L616.608 279.64C616.263 279.49 615.948 279.415 615.633 279.415C614.493 279.415 613.653 280.27 613.653 281.875V286H612.618V278.605H613.653V279.715C614.193 278.74 615.093 278.485 615.843 278.485ZM618.564 277.075V275.545H619.764V277.075H618.564ZM618.654 286V278.605H619.689V286H618.654ZM625.478 285.01L625.493 285.925C625.103 286.045 624.713 286.12 624.368 286.12C623.378 286.12 622.658 285.565 622.658 284.26V279.475H621.428V278.605H622.658V276.685L623.693 275.905V278.605H625.478V279.475H623.693V284.125C623.693 284.845 624.023 285.175 624.608 285.175C624.863 285.175 625.148 285.115 625.478 285.01ZM633.279 281.935C633.279 282.145 633.264 282.4 633.234 282.58H627.819C627.849 284.2 628.749 285.175 630.204 285.175C631.014 285.175 631.659 284.965 632.334 284.245L633.054 284.875C632.184 285.79 631.329 286.12 630.189 286.12C627.939 286.12 626.784 284.44 626.784 282.34C626.784 280.255 627.924 278.485 630.069 278.485C632.334 278.485 633.279 280.255 633.279 281.935ZM630.069 279.355C628.734 279.355 627.909 280.405 627.819 281.71H632.289C632.289 281.68 632.274 281.605 632.274 281.47C632.199 280.27 631.434 279.355 630.069 279.355ZM637.602 286.12C636.147 286.12 634.962 285.37 634.572 284.185L635.442 283.795C635.712 284.56 636.432 285.205 637.587 285.205C638.592 285.205 639.237 284.71 639.237 283.93C639.237 281.965 634.977 283.195 634.977 280.57C634.977 279.28 636.027 278.485 637.512 278.485C638.697 278.485 639.657 278.98 640.167 280.03L639.342 280.48C638.982 279.82 638.397 279.4 637.482 279.4C636.567 279.4 635.982 279.775 635.982 280.42C635.982 282.175 640.257 281.065 640.257 283.87C640.257 285.37 639.027 286.12 637.602 286.12ZM642.865 286V284.35H644.215V286H642.865Z" fill="black"/>
<ellipse cx="514.106" cy="163.98" rx="48.1061" ry="8.9798" fill="#D9D9D9"/>
<ellipse cx="567.862" cy="166.196" rx="36.7915" ry="8.9798" transform="rotate(15 567.862 166.196)" fill="#D9D9D9"/>
<path d="M539 57.5V45.7924C539 38.9905 545.644 34.1733 552.109 36.288L585.609 47.2459C589.72 48.5905 592.5 52.4254 592.5 56.7504V159.072C592.5 165.767 586.049 170.571 579.635 168.652L546.135 158.634C541.901 157.368 539 153.472 539 149.053V128" stroke="black" stroke-width="2" stroke-linecap="round"/>
<path d="M543 37.4765L545.086 35.3478C547.703 32.6772 551.591 31.6895 555.165 32.7875L590.936 43.776C595.135 45.0656 598 48.9434 598 53.3352V157.913C598 159.629 597.558 161.316 596.718 162.812L596.09 163.929C594.33 167.061 591.016 169 587.423 169V169" stroke="black" stroke-width="2" stroke-linecap="round"/>
<path d="M544 48.9703V59.2354C544 61.1355 545.35 62.7425 547.134 63.3977C554.099 65.9561 562.226 72.7849 555.526 86.0043C555.197 86.6549 555.019 87.3789 555.031 88.1082C555.162 96.2435 553.398 111.886 545.448 119.718C544.577 120.576 544 121.713 544 122.935V148.978C544 150.766 545.187 152.337 546.907 152.826L582.907 163.053C585.461 163.779 588 161.86 588 159.205V63.3497C588 59.8659 585.745 56.7826 582.426 55.7263L549.213 45.1586C546.633 44.3378 544 46.2631 544 48.9703Z" fill="black" stroke="black" stroke-width="2" stroke-linecap="round"/>
<circle cx="510.653" cy="93.6533" r="44.1437" transform="rotate(-4.75818 510.653 93.6533)" fill="#2F9CEB"/>
<circle cx="510.5" cy="77.5" r="13.5" stroke="black" stroke-width="2"/>
<circle cx="543.5" cy="77.5" r="13.5" stroke="black" stroke-width="2"/>
<circle cx="513.5" cy="77.5" r="2.5" fill="black"/>
<circle cx="541.5" cy="77.5" r="2.5" fill="black"/>
<path d="M527 83C528 85.5 529.4 90.9 527 92.5" stroke="black" stroke-width="2" stroke-linecap="round"/>
<path d="M524.5 78.5C525 77.8334 528.8 76.9 530 78.5" stroke="black" stroke-width="2" stroke-linecap="round"/>
<path d="M512 91.5C512.333 93.3333 514.1 96.8 518.5 96" stroke="black" stroke-width="2" stroke-linecap="round"/>
<path d="M521.5 133.5V160.5H529.5" stroke="black" stroke-width="2" stroke-linecap="round"/>
<path d="M507 134V161H515" stroke="black" stroke-width="2" stroke-linecap="round"/>
<path d="M573.047 96.9364C572.149 94.5981 568.987 97.4295 567.902 98.9114C565.143 95.302 562.261 95.3748 562.09 98.1574C562.055 98.7307 562.25 99.2886 562.508 99.8015L566.1 106.918C566.414 107.54 567.188 107.773 567.775 107.396C570.766 105.471 574.953 101.9 573.047 96.9364Z" fill="#F23F3A" stroke="#F23F3A" stroke-width="1.1" stroke-linecap="round"/>
<path d="M488.5 94.5C484.167 102.167 476.4 121 480 135" stroke="black" stroke-width="2" stroke-linecap="round"/>
<path d="M827.27 229.42C825.65 229.42 824.22 229.13 822.98 228.55C821.74 227.97 820.77 227.14 820.07 226.06C819.37 224.98 819.02 223.68 819.02 222.16V221.32H822.92V222.16C822.92 223.42 823.31 224.37 824.09 225.01C824.87 225.63 825.93 225.94 827.27 225.94C828.63 225.94 829.64 225.67 830.3 225.13C830.98 224.59 831.32 223.9 831.32 223.06C831.32 222.48 831.15 222.01 830.81 221.65C830.49 221.29 830.01 221 829.37 220.78C828.75 220.54 827.99 220.32 827.09 220.12L826.4 219.97C824.96 219.65 823.72 219.25 822.68 218.77C821.66 218.27 820.87 217.62 820.31 216.82C819.77 216.02 819.5 214.98 819.5 213.7C819.5 212.42 819.8 211.33 820.4 210.43C821.02 209.51 821.88 208.81 822.98 208.33C824.1 207.83 825.41 207.58 826.91 207.58C828.41 207.58 829.74 207.84 830.9 208.36C832.08 208.86 833 209.62 833.66 210.64C834.34 211.64 834.68 212.9 834.68 214.42V215.32H830.78V214.42C830.78 213.62 830.62 212.98 830.3 212.5C830 212 829.56 211.64 828.98 211.42C828.4 211.18 827.71 211.06 826.91 211.06C825.71 211.06 824.82 211.29 824.24 211.75C823.68 212.19 823.4 212.8 823.4 213.58C823.4 214.1 823.53 214.54 823.79 214.9C824.07 215.26 824.48 215.56 825.02 215.8C825.56 216.04 826.25 216.25 827.09 216.43L827.78 216.58C829.28 216.9 830.58 217.31 831.68 217.81C832.8 218.31 833.67 218.97 834.29 219.79C834.91 220.61 835.22 221.66 835.22 222.94C835.22 224.22 834.89 225.35 834.23 226.33C833.59 227.29 832.67 228.05 831.47 228.61C830.29 229.15 828.89 229.42 827.27 229.42ZM845.073 229.42C843.593 229.42 842.283 229.11 841.143 228.49C840.023 227.85 839.143 226.96 838.503 225.82C837.883 224.66 837.573 223.3 837.573 221.74V221.38C837.573 219.82 837.883 218.47 838.503 217.33C839.123 216.17 839.993 215.28 841.113 214.66C842.233 214.02 843.533 213.7 845.013 213.7C846.473 213.7 847.743 214.03 848.823 214.69C849.903 215.33 850.743 216.23 851.343 217.39C851.943 218.53 852.243 219.86 852.243 221.38V222.67H841.413C841.453 223.69 841.833 224.52 842.553 225.16C843.273 225.8 844.153 226.12 845.193 226.12C846.253 226.12 847.033 225.89 847.533 225.43C848.033 224.97 848.413 224.46 848.673 223.9L851.763 225.52C851.483 226.04 851.073 226.61 850.533 227.23C850.013 227.83 849.313 228.35 848.433 228.79C847.553 229.21 846.433 229.42 845.073 229.42ZM841.443 219.85H848.403C848.323 218.99 847.973 218.3 847.353 217.78C846.753 217.26 845.963 217 844.983 217C843.963 217 843.153 217.26 842.553 217.78C841.953 218.3 841.583 218.99 841.443 219.85ZM862.598 229.42C861.158 229.42 859.848 229.12 858.668 228.52C857.508 227.92 856.588 227.05 855.908 225.91C855.228 224.77 854.888 223.39 854.888 221.77V221.35C854.888 219.73 855.228 218.35 855.908 217.21C856.588 216.07 857.508 215.2 858.668 214.6C859.848 214 861.158 213.7 862.598 213.7C864.018 213.7 865.238 213.95 866.258 214.45C867.278 214.95 868.098 215.64 868.718 216.52C869.358 217.38 869.778 218.36 869.978 219.46L866.318 220.24C866.238 219.64 866.058 219.1 865.778 218.62C865.498 218.14 865.098 217.76 864.578 217.48C864.078 217.2 863.448 217.06 862.688 217.06C861.928 217.06 861.238 217.23 860.618 217.57C860.018 217.89 859.538 218.38 859.178 219.04C858.838 219.68 858.668 220.47 858.668 221.41V221.71C858.668 222.65 858.838 223.45 859.178 224.11C859.538 224.75 860.018 225.24 860.618 225.58C861.238 225.9 861.928 226.06 862.688 226.06C863.828 226.06 864.688 225.77 865.268 225.19C865.868 224.59 866.248 223.81 866.408 222.85L870.068 223.72C869.808 224.78 869.358 225.75 868.718 226.63C868.098 227.49 867.278 228.17 866.258 228.67C865.238 229.17 864.018 229.42 862.598 229.42ZM878.856 229.24C877.696 229.24 876.676 228.98 875.796 228.46C874.936 227.92 874.266 227.18 873.786 226.24C873.306 225.3 873.066 224.22 873.066 223V214.12H876.846V222.7C876.846 223.82 877.116 224.66 877.656 225.22C878.216 225.78 879.006 226.06 880.026 226.06C881.186 226.06 882.086 225.68 882.726 224.92C883.366 224.14 883.686 223.06 883.686 221.68V214.12H887.466V229H883.746V227.05H883.206C882.966 227.55 882.516 228.04 881.856 228.52C881.196 229 880.196 229.24 878.856 229.24ZM891.672 229V214.12H895.392V215.8H895.932C896.152 215.2 896.512 214.76 897.012 214.48C897.532 214.2 898.132 214.06 898.812 214.06H900.612V217.42H898.752C897.792 217.42 897.002 217.68 896.382 218.2C895.762 218.7 895.452 219.48 895.452 220.54V229H891.672ZM909.819 229.42C908.339 229.42 907.029 229.11 905.889 228.49C904.769 227.85 903.889 226.96 903.249 225.82C902.629 224.66 902.319 223.3 902.319 221.74V221.38C902.319 219.82 902.629 218.47 903.249 217.33C903.869 216.17 904.739 215.28 905.859 214.66C906.979 214.02 908.279 213.7 909.759 213.7C911.219 213.7 912.489 214.03 913.569 214.69C914.649 215.33 915.489 216.23 916.089 217.39C916.689 218.53 916.989 219.86 916.989 221.38V222.67H906.159C906.199 223.69 906.579 224.52 907.299 225.16C908.019 225.8 908.899 226.12 909.939 226.12C910.999 226.12 911.779 225.89 912.279 225.43C912.779 224.97 913.159 224.46 913.419 223.9L916.509 225.52C916.229 226.04 915.819 226.61 915.279 227.23C914.759 227.83 914.059 228.35 913.179 228.79C912.299 229.21 911.179 229.42 909.819 229.42ZM906.189 219.85H913.149C913.069 218.99 912.719 218.3 912.099 217.78C911.499 217.26 910.709 217 909.729 217C908.709 217 907.899 217.26 907.299 217.78C906.699 218.3 906.329 218.99 906.189 219.85ZM932.591 229.42C931.531 229.42 930.581 229.24 929.741 228.88C928.901 228.5 928.231 227.96 927.731 227.26C927.251 226.54 927.011 225.67 927.011 224.65C927.011 223.63 927.251 222.78 927.731 222.1C928.231 221.4 928.911 220.88 929.771 220.54C930.651 220.18 931.651 220 932.771 220H936.851V219.16C936.851 218.46 936.631 217.89 936.191 217.45C935.751 216.99 935.051 216.76 934.091 216.76C933.151 216.76 932.451 216.98 931.991 217.42C931.531 217.84 931.231 218.39 931.091 219.07L927.611 217.9C927.851 217.14 928.231 216.45 928.751 215.83C929.291 215.19 930.001 214.68 930.881 214.3C931.781 213.9 932.871 213.7 934.151 213.7C936.111 213.7 937.661 214.19 938.801 215.17C939.941 216.15 940.511 217.57 940.511 219.43V224.98C940.511 225.58 940.791 225.88 941.351 225.88H942.551V229H940.031C939.291 229 938.681 228.82 938.201 228.46C937.721 228.1 937.481 227.62 937.481 227.02V226.99H936.911C936.831 227.23 936.651 227.55 936.371 227.95C936.091 228.33 935.651 228.67 935.051 228.97C934.451 229.27 933.631 229.42 932.591 229.42ZM933.251 226.36C934.311 226.36 935.171 226.07 935.831 225.49C936.511 224.89 936.851 224.1 936.851 223.12V222.82H933.041C932.341 222.82 931.791 222.97 931.391 223.27C930.991 223.57 930.791 223.99 930.791 224.53C930.791 225.07 931.001 225.51 931.421 225.85C931.841 226.19 932.451 226.36 933.251 226.36ZM959.112 229.42C957.172 229.42 955.582 229 954.342 228.16C953.102 227.32 952.352 226.12 952.092 224.56L955.572 223.66C955.712 224.36 955.942 224.91 956.262 225.31C956.602 225.71 957.012 226 957.492 226.18C957.992 226.34 958.532 226.42 959.112 226.42C959.992 226.42 960.642 226.27 961.062 225.97C961.482 225.65 961.692 225.26 961.692 224.8C961.692 224.34 961.492 223.99 961.092 223.75C960.692 223.49 960.052 223.28 959.172 223.12L958.332 222.97C957.292 222.77 956.342 222.5 955.482 222.16C954.622 221.8 953.932 221.31 953.412 220.69C952.892 220.07 952.632 219.27 952.632 218.29C952.632 216.81 953.172 215.68 954.252 214.9C955.332 214.1 956.752 213.7 958.512 213.7C960.172 213.7 961.552 214.07 962.652 214.81C963.752 215.55 964.472 216.52 964.812 217.72L961.302 218.8C961.142 218.04 960.812 217.5 960.312 217.18C959.832 216.86 959.232 216.7 958.512 216.7C957.792 216.7 957.242 216.83 956.862 217.09C956.482 217.33 956.292 217.67 956.292 218.11C956.292 218.59 956.492 218.95 956.892 219.19C957.292 219.41 957.832 219.58 958.512 219.7L959.352 219.85C960.472 220.05 961.482 220.32 962.382 220.66C963.302 220.98 964.022 221.45 964.542 222.07C965.082 222.67 965.352 223.49 965.352 224.53C965.352 226.09 964.782 227.3 963.642 228.16C962.522 229 961.012 229.42 959.112 229.42ZM968.664 235V214.12H972.384V215.92H972.924C973.264 215.34 973.794 214.83 974.514 214.39C975.234 213.93 976.264 213.7 977.604 213.7C978.804 213.7 979.914 214 980.934 214.6C981.954 215.18 982.774 216.04 983.394 217.18C984.014 218.32 984.324 219.7 984.324 221.32V221.8C984.324 223.42 984.014 224.8 983.394 225.94C982.774 227.08 981.954 227.95 980.934 228.55C979.914 229.13 978.804 229.42 977.604 229.42C976.704 229.42 975.944 229.31 975.324 229.09C974.724 228.89 974.234 228.63 973.854 228.31C973.494 227.97 973.204 227.63 972.984 227.29H972.444V235H968.664ZM976.464 226.12C977.644 226.12 978.614 225.75 979.374 225.01C980.154 224.25 980.544 223.15 980.544 221.71V221.41C980.544 219.97 980.154 218.88 979.374 218.14C978.594 217.38 977.624 217 976.464 217C975.304 217 974.334 217.38 973.554 218.14C972.774 218.88 972.384 219.97 972.384 221.41V221.71C972.384 223.15 972.774 224.25 973.554 225.01C974.334 225.75 975.304 226.12 976.464 226.12ZM994.875 229.42C993.395 229.42 992.065 229.12 990.885 228.52C989.705 227.92 988.775 227.05 988.095 225.91C987.415 224.77 987.075 223.4 987.075 221.8V221.32C987.075 219.72 987.415 218.35 988.095 217.21C988.775 216.07 989.705 215.2 990.885 214.6C992.065 214 993.395 213.7 994.875 213.7C996.355 213.7 997.685 214 998.865 214.6C1000.05 215.2 1000.98 216.07 1001.66 217.21C1002.34 218.35 1002.68 219.72 1002.68 221.32V221.8C1002.68 223.4 1002.34 224.77 1001.66 225.91C1000.98 227.05 1000.05 227.92 998.865 228.52C997.685 229.12 996.355 229.42 994.875 229.42ZM994.875 226.06C996.035 226.06 996.995 225.69 997.755 224.95C998.515 224.19 998.895 223.11 998.895 221.71V221.41C998.895 220.01 998.515 218.94 997.755 218.2C997.015 217.44 996.055 217.06 994.875 217.06C993.715 217.06 992.755 217.44 991.995 218.2C991.235 218.94 990.855 220.01 990.855 221.41V221.71C990.855 223.11 991.235 224.19 991.995 224.95C992.755 225.69 993.715 226.06 994.875 226.06ZM1011.37 229C1010.39 229 1009.59 228.7 1008.97 228.1C1008.37 227.48 1008.07 226.66 1008.07 225.64V217.24H1004.35V214.12H1008.07V209.5H1011.85V214.12H1015.93V217.24H1011.85V224.98C1011.85 225.58 1012.13 225.88 1012.69 225.88H1015.57V229H1011.37Z" fill="black"/>
<path d="M799.868 255.545H800.933V266H799.763L794.618 257.36V266H793.553V255.545H794.708L799.868 264.14V255.545ZM806.899 266.12C804.784 266.12 803.359 264.485 803.359 262.295C803.359 260.105 804.784 258.485 806.899 258.485C808.999 258.485 810.454 260.105 810.454 262.295C810.454 264.47 809.014 266.12 806.899 266.12ZM806.899 265.205C808.489 265.205 809.419 263.945 809.419 262.295C809.419 260.615 808.474 259.4 806.899 259.4C805.309 259.4 804.394 260.63 804.394 262.295C804.394 263.975 805.324 265.205 806.899 265.205ZM820.126 258.485C821.716 258.485 822.541 259.505 822.541 261.47V266H821.506V261.725C821.506 260.135 820.996 259.4 819.886 259.4C818.491 259.4 817.681 260.6 817.681 262.685V266H816.646V258.605H817.681V259.685C818.161 258.935 819.061 258.485 820.126 258.485ZM830.993 261.935C830.993 262.145 830.978 262.4 830.948 262.58H825.533C825.563 264.2 826.463 265.175 827.918 265.175C828.728 265.175 829.373 264.965 830.048 264.245L830.768 264.875C829.898 265.79 829.043 266.12 827.903 266.12C825.653 266.12 824.498 264.44 824.498 262.34C824.498 260.255 825.638 258.485 827.783 258.485C830.048 258.485 830.993 260.255 830.993 261.935ZM827.783 259.355C826.448 259.355 825.623 260.405 825.533 261.71H830.003C830.003 261.68 829.988 261.605 829.988 261.47C829.913 260.27 829.148 259.355 827.783 259.355ZM838.976 261.935C838.976 262.145 838.961 262.4 838.931 262.58H833.516C833.546 264.2 834.446 265.175 835.901 265.175C836.711 265.175 837.356 264.965 838.031 264.245L838.751 264.875C837.881 265.79 837.026 266.12 835.886 266.12C833.636 266.12 832.481 264.44 832.481 262.34C832.481 260.255 833.621 258.485 835.766 258.485C838.031 258.485 838.976 260.255 838.976 261.935ZM835.766 259.355C834.431 259.355 833.606 260.405 833.516 261.71H837.986C837.986 261.68 837.971 261.605 837.971 261.47C837.896 260.27 837.131 259.355 835.766 259.355ZM846.21 255.545H847.245V266H846.21V265.01C845.67 265.7 844.845 266.12 843.765 266.12C841.605 266.12 840.48 264.5 840.48 262.295C840.48 259.985 841.71 258.47 843.765 258.47C844.815 258.47 845.655 258.875 846.21 259.595V255.545ZM843.915 265.205C845.475 265.205 846.3 263.975 846.3 262.295C846.3 260.54 845.4 259.385 843.915 259.385C842.415 259.385 841.515 260.54 841.515 262.295C841.515 263.975 842.34 265.205 843.915 265.205ZM857.133 265.01L857.148 265.925C856.758 266.045 856.368 266.12 856.023 266.12C855.033 266.12 854.313 265.565 854.313 264.26V259.475H853.083V258.605H854.313V256.685L855.348 255.905V258.605H857.133V259.475H855.348V264.125C855.348 264.845 855.678 265.175 856.263 265.175C856.518 265.175 856.803 265.115 857.133 265.01ZM861.933 266.12C859.818 266.12 858.393 264.485 858.393 262.295C858.393 260.105 859.818 258.485 861.933 258.485C864.033 258.485 865.488 260.105 865.488 262.295C865.488 264.47 864.048 266.12 861.933 266.12ZM861.933 265.205C863.523 265.205 864.453 263.945 864.453 262.295C864.453 260.615 863.508 259.4 861.933 259.4C860.343 259.4 859.428 260.63 859.428 262.295C859.428 263.975 860.358 265.205 861.933 265.205ZM872.91 266L870.735 258.605H871.845L873.435 264.44L875.385 258.605H876.33L878.265 264.44L879.87 258.605H880.965L878.805 266H877.83L875.865 260.03L873.87 266H872.91ZM885.517 266.12C883.402 266.12 881.977 264.485 881.977 262.295C881.977 260.105 883.402 258.485 885.517 258.485C887.617 258.485 889.072 260.105 889.072 262.295C889.072 264.47 887.632 266.12 885.517 266.12ZM885.517 265.205C887.107 265.205 888.037 263.945 888.037 262.295C888.037 260.615 887.092 259.4 885.517 259.4C883.927 259.4 883.012 260.63 883.012 262.295C883.012 263.975 883.942 265.205 885.517 265.205ZM894.387 258.485C894.837 258.485 895.257 258.575 895.662 258.8L895.152 259.64C894.807 259.49 894.492 259.415 894.177 259.415C893.037 259.415 892.197 260.27 892.197 261.875V266H891.162V258.605H892.197V259.715C892.737 258.74 893.637 258.485 894.387 258.485ZM900.423 258.485C900.873 258.485 901.293 258.575 901.698 258.8L901.188 259.64C900.843 259.49 900.528 259.415 900.213 259.415C899.073 259.415 898.233 260.27 898.233 261.875V266H897.198V258.605H898.233V259.715C898.773 258.74 899.673 258.485 900.423 258.485ZM904.262 269.06L905.492 265.91L902.357 258.605H903.497L906.047 264.695L908.282 258.605H909.422L905.372 269.06H904.262ZM917.765 258.485C919.625 258.485 920.705 259.55 920.705 261.395V266H919.76L919.7 264.86C919.115 265.685 918.215 266.12 917.045 266.12C915.44 266.12 914.495 265.28 914.495 263.855C914.495 263.105 914.795 262.535 915.335 262.205C915.905 261.875 916.7 261.74 918.155 261.74H919.67V261.395C919.67 260.105 918.995 259.4 917.75 259.4C916.82 259.4 916.1 259.805 915.5 260.63L914.75 260C915.545 258.965 916.505 258.485 917.765 258.485ZM917.345 265.265C918.77 265.265 919.67 264.26 919.67 262.685V262.58H918.245C916.88 262.58 916.295 262.67 915.935 262.955C915.665 263.165 915.53 263.495 915.53 263.915C915.53 264.74 916.235 265.265 917.345 265.265ZM926.708 258.47C928.763 258.47 929.993 259.985 929.993 262.295C929.993 264.5 928.868 266.12 926.708 266.12C925.628 266.12 924.803 265.7 924.263 265.01V266H923.228V255.545H924.263V259.595C924.818 258.875 925.658 258.47 926.708 258.47ZM926.558 265.205C928.133 265.205 928.958 263.975 928.958 262.295C928.958 260.54 928.058 259.385 926.558 259.385C925.073 259.385 924.173 260.54 924.173 262.295C924.173 263.975 924.998 265.205 926.558 265.205ZM935.029 266.12C932.914 266.12 931.489 264.485 931.489 262.295C931.489 260.105 932.914 258.485 935.029 258.485C937.129 258.485 938.584 260.105 938.584 262.295C938.584 264.47 937.144 266.12 935.029 266.12ZM935.029 265.205C936.619 265.205 937.549 263.945 937.549 262.295C937.549 260.615 936.604 259.4 935.029 259.4C933.439 259.4 932.524 260.63 932.524 262.295C932.524 263.975 933.454 265.205 935.029 265.205ZM945.281 258.605H946.316V266H945.281V264.935C944.756 265.73 943.811 266.12 942.836 266.12C941.156 266.12 940.421 264.965 940.421 263.135V258.605H941.456V262.88C941.456 264.08 941.666 265.205 943.076 265.205C944.546 265.205 945.281 263.93 945.281 262.01V258.605ZM952.113 265.01L952.128 265.925C951.738 266.045 951.348 266.12 951.003 266.12C950.013 266.12 949.293 265.565 949.293 264.26V259.475H948.063V258.605H949.293V256.685L950.328 255.905V258.605H952.113V259.475H950.328V264.125C950.328 264.845 950.658 265.175 951.243 265.175C951.498 265.175 951.783 265.115 952.113 265.01ZM961.674 258.47C963.729 258.47 964.959 259.985 964.959 262.295C964.959 264.5 963.834 266.12 961.674 266.12C960.594 266.12 959.769 265.7 959.229 265.01V266H958.194V255.545H959.229V259.595C959.784 258.875 960.624 258.47 961.674 258.47ZM961.524 265.205C963.099 265.205 963.924 263.975 963.924 262.295C963.924 260.54 963.024 259.385 961.524 259.385C960.039 259.385 959.139 260.54 959.139 262.295C959.139 263.975 959.964 265.205 961.524 265.205ZM969.995 266.12C967.88 266.12 966.455 264.485 966.455 262.295C966.455 260.105 967.88 258.485 969.995 258.485C972.095 258.485 973.55 260.105 973.55 262.295C973.55 264.47 972.11 266.12 969.995 266.12ZM969.995 265.205C971.585 265.205 972.515 263.945 972.515 262.295C972.515 260.615 971.57 259.4 969.995 259.4C968.405 259.4 967.49 260.63 967.49 262.295C967.49 263.975 968.42 265.205 969.995 265.205ZM978.535 266.12C976.42 266.12 974.995 264.485 974.995 262.295C974.995 260.105 976.42 258.485 978.535 258.485C980.635 258.485 982.09 260.105 982.09 262.295C982.09 264.47 980.65 266.12 978.535 266.12ZM978.535 265.205C980.125 265.205 981.055 263.945 981.055 262.295C981.055 260.615 980.11 259.4 978.535 259.4C976.945 259.4 976.03 260.63 976.03 262.295C976.03 263.975 976.96 265.205 978.535 265.205ZM984.18 266V255.545H985.215V262.52L988.905 258.605H990.3L987.615 261.38L990.72 266H989.49L986.91 262.025L985.215 263.825V266H984.18ZM992.264 257.075V255.545H993.464V257.075H992.264ZM992.354 266V258.605H993.389V266H992.354ZM999.598 258.485C1001.19 258.485 1002.01 259.505 1002.01 261.47V266H1000.98V261.725C1000.98 260.135 1000.47 259.4 999.358 259.4C997.963 259.4 997.153 260.6 997.153 262.685V266H996.118V258.605H997.153V259.685C997.633 258.935 998.533 258.485 999.598 258.485ZM1007.12 265.1C1008.59 265.325 1010.33 265.535 1010.33 267.14C1010.33 268.535 1009.03 269.18 1007.17 269.18C1005.11 269.18 1003.87 268.37 1003.87 266.9C1003.87 266.75 1003.88 266.66 1003.9 266.57L1005.1 265.55C1004.53 265.295 1004.14 264.875 1004.14 264.14C1004.14 263.54 1004.41 263.09 1004.93 262.73C1004.54 262.28 1004.3 261.71 1004.3 261.05C1004.3 259.55 1005.53 258.485 1007.12 258.485C1007.84 258.485 1008.49 258.71 1008.97 259.085L1009.99 258.2L1010.53 258.875L1009.52 259.715C1009.78 260.12 1009.93 260.585 1009.93 261.11C1009.93 262.625 1008.7 263.63 1007.14 263.63C1006.57 263.63 1006.04 263.495 1005.61 263.255C1005.31 263.42 1005.13 263.69 1005.13 264.005C1005.13 264.755 1006.06 264.935 1007.12 265.1ZM1007.14 259.355C1006.09 259.355 1005.32 260.06 1005.32 261.08C1005.32 262.04 1006.01 262.775 1007.12 262.775C1008.23 262.775 1008.89 262.055 1008.89 261.08C1008.89 260.06 1008.2 259.355 1007.14 259.355ZM1007.21 268.31C1008.52 268.31 1009.3 267.95 1009.3 267.23C1009.3 266.33 1008.13 266.195 1006.9 266C1006.57 265.955 1006.22 265.895 1005.91 265.82L1004.9 266.795C1004.89 266.87 1004.89 266.9 1004.89 266.93C1004.89 267.98 1005.95 268.31 1007.21 268.31ZM1019.06 258.485C1020.92 258.485 1022 259.55 1022 261.395V266H1021.05L1020.99 264.86C1020.41 265.685 1019.51 266.12 1018.34 266.12C1016.73 266.12 1015.79 265.28 1015.79 263.855C1015.79 263.105 1016.09 262.535 1016.63 262.205C1017.2 261.875 1017.99 261.74 1019.45 261.74H1020.96V261.395C1020.96 260.105 1020.29 259.4 1019.04 259.4C1018.11 259.4 1017.39 259.805 1016.79 260.63L1016.04 260C1016.84 258.965 1017.8 258.485 1019.06 258.485ZM1018.64 265.265C1020.06 265.265 1020.96 264.26 1020.96 262.685V262.58H1019.54C1018.17 262.58 1017.59 262.67 1017.23 262.955C1016.96 263.165 1016.82 263.495 1016.82 263.915C1016.82 264.74 1017.53 265.265 1018.64 265.265ZM793.35 278.485C793.8 278.485 794.22 278.575 794.625 278.8L794.115 279.64C793.77 279.49 793.455 279.415 793.14 279.415C792 279.415 791.16 280.27 791.16 281.875V286H790.125V278.605H791.16V279.715C791.7 278.74 792.6 278.485 793.35 278.485ZM801.381 281.935C801.381 282.145 801.366 282.4 801.336 282.58H795.921C795.951 284.2 796.851 285.175 798.306 285.175C799.116 285.175 799.761 284.965 800.436 284.245L801.156 284.875C800.286 285.79 799.431 286.12 798.291 286.12C796.041 286.12 794.886 284.44 794.886 282.34C794.886 280.255 796.026 278.485 798.171 278.485C800.436 278.485 801.381 280.255 801.381 281.935ZM798.171 279.355C796.836 279.355 796.011 280.405 795.921 281.71H800.391C800.391 281.68 800.376 281.605 800.376 281.47C800.301 280.27 799.536 279.355 798.171 279.355ZM805.704 286.12C804.249 286.12 803.064 285.37 802.674 284.185L803.544 283.795C803.814 284.56 804.534 285.205 805.689 285.205C806.694 285.205 807.339 284.71 807.339 283.93C807.339 281.965 803.079 283.195 803.079 280.57C803.079 279.28 804.129 278.485 805.614 278.485C806.799 278.485 807.759 278.98 808.269 280.03L807.444 280.48C807.084 279.82 806.499 279.4 805.584 279.4C804.669 279.4 804.084 279.775 804.084 280.42C804.084 282.175 808.359 281.065 808.359 283.87C808.359 285.37 807.129 286.12 805.704 286.12ZM816.279 281.935C816.279 282.145 816.264 282.4 816.234 282.58H810.819C810.849 284.2 811.749 285.175 813.204 285.175C814.014 285.175 814.659 284.965 815.334 284.245L816.054 284.875C815.184 285.79 814.329 286.12 813.189 286.12C810.939 286.12 809.784 284.44 809.784 282.34C809.784 280.255 810.924 278.485 813.069 278.485C815.334 278.485 816.279 280.255 816.279 281.935ZM813.069 279.355C811.734 279.355 810.909 280.405 810.819 281.71H815.289C815.289 281.68 815.274 281.605 815.274 281.47C815.199 280.27 814.434 279.355 813.069 279.355ZM821.592 278.485C822.042 278.485 822.462 278.575 822.867 278.8L822.357 279.64C822.012 279.49 821.697 279.415 821.382 279.415C820.242 279.415 819.402 280.27 819.402 281.875V286H818.367V278.605H819.402V279.715C819.942 278.74 820.842 278.485 821.592 278.485ZM826.572 286L823.557 278.605H824.682L827.007 284.68L829.347 278.605H830.487L827.457 286H826.572ZM834.643 278.485C836.503 278.485 837.583 279.55 837.583 281.395V286H836.638L836.578 284.86C835.993 285.685 835.093 286.12 833.923 286.12C832.318 286.12 831.373 285.28 831.373 283.855C831.373 283.105 831.673 282.535 832.213 282.205C832.783 281.875 833.578 281.74 835.033 281.74H836.548V281.395C836.548 280.105 835.873 279.4 834.628 279.4C833.698 279.4 832.978 279.805 832.378 280.63L831.628 280C832.423 278.965 833.383 278.485 834.643 278.485ZM834.223 285.265C835.648 285.265 836.548 284.26 836.548 282.685V282.58H835.123C833.758 282.58 833.173 282.67 832.813 282.955C832.543 283.165 832.408 283.495 832.408 283.915C832.408 284.74 833.113 285.265 834.223 285.265ZM843.165 285.01L843.18 285.925C842.79 286.045 842.4 286.12 842.055 286.12C841.065 286.12 840.345 285.565 840.345 284.26V279.475H839.115V278.605H840.345V276.685L841.38 275.905V278.605H843.165V279.475H841.38V284.125C841.38 284.845 841.71 285.175 842.295 285.175C842.55 285.175 842.835 285.115 843.165 285.01ZM845.054 277.075V275.545H846.254V277.075H845.054ZM845.144 286V278.605H846.179V286H845.144ZM851.804 286.12C849.689 286.12 848.264 284.485 848.264 282.295C848.264 280.105 849.689 278.485 851.804 278.485C853.904 278.485 855.359 280.105 855.359 282.295C855.359 284.47 853.919 286.12 851.804 286.12ZM851.804 285.205C853.394 285.205 854.324 283.945 854.324 282.295C854.324 280.615 853.379 279.4 851.804 279.4C850.214 279.4 849.299 280.63 849.299 282.295C849.299 283.975 850.229 285.205 851.804 285.205ZM860.929 278.485C862.519 278.485 863.344 279.505 863.344 281.47V286H862.309V281.725C862.309 280.135 861.799 279.4 860.689 279.4C859.294 279.4 858.484 280.6 858.484 282.685V286H857.449V278.605H858.484V279.685C858.964 278.935 859.864 278.485 860.929 278.485ZM869.166 281.8V281.005H873.171V281.8H869.166ZM880.403 286L878.228 278.605H879.338L880.928 284.44L882.878 278.605H883.823L885.758 284.44L887.363 278.605H888.458L886.298 286H885.323L883.358 280.03L881.363 286H880.403ZM896.01 281.935C896.01 282.145 895.995 282.4 895.965 282.58H890.55C890.58 284.2 891.48 285.175 892.935 285.175C893.745 285.175 894.39 284.965 895.065 284.245L895.785 284.875C894.915 285.79 894.06 286.12 892.92 286.12C890.67 286.12 889.515 284.44 889.515 282.34C889.515 280.255 890.655 278.485 892.8 278.485C895.065 278.485 896.01 280.255 896.01 281.935ZM892.8 279.355C891.465 279.355 890.64 280.405 890.55 281.71H895.02C895.02 281.68 895.005 281.605 895.005 281.47C894.93 280.27 894.165 279.355 892.8 279.355ZM907.345 275.545H908.38V286H907.345V285.01C906.805 285.7 905.98 286.12 904.9 286.12C902.74 286.12 901.615 284.5 901.615 282.295C901.615 279.985 902.845 278.47 904.9 278.47C905.95 278.47 906.79 278.875 907.345 279.595V275.545ZM905.05 285.205C906.61 285.205 907.435 283.975 907.435 282.295C907.435 280.54 906.535 279.385 905.05 279.385C903.55 279.385 902.65 280.54 902.65 282.295C902.65 283.975 903.475 285.205 905.05 285.205ZM914.001 286.12C911.886 286.12 910.461 284.485 910.461 282.295C910.461 280.105 911.886 278.485 914.001 278.485C916.101 278.485 917.556 280.105 917.556 282.295C917.556 284.47 916.116 286.12 914.001 286.12ZM914.001 285.205C915.591 285.205 916.521 283.945 916.521 282.295C916.521 280.615 915.576 279.4 914.001 279.4C912.411 279.4 911.496 280.63 911.496 282.295C911.496 283.975 912.426 285.205 914.001 285.205ZM926.313 278.485C928.173 278.485 929.253 279.55 929.253 281.395V286H928.308L928.248 284.86C927.663 285.685 926.763 286.12 925.593 286.12C923.988 286.12 923.043 285.28 923.043 283.855C923.043 283.105 923.343 282.535 923.883 282.205C924.453 281.875 925.248 281.74 926.703 281.74H928.218V281.395C928.218 280.105 927.543 279.4 926.298 279.4C925.368 279.4 924.648 279.805 924.048 280.63L923.298 280C924.093 278.965 925.053 278.485 926.313 278.485ZM925.893 285.265C927.318 285.265 928.218 284.26 928.218 282.685V282.58H926.793C925.428 282.58 924.843 282.67 924.483 282.955C924.213 283.165 924.078 283.495 924.078 283.915C924.078 284.74 924.783 285.265 925.893 285.265ZM933.125 286.12C932.27 286.12 931.715 285.55 931.715 284.395V275.545H932.75V284.335C932.75 284.845 932.93 285.175 933.425 285.175C933.65 285.175 933.905 285.115 934.13 285.04L934.145 285.925C933.83 286.03 933.455 286.12 933.125 286.12ZM937.168 286.12C936.313 286.12 935.758 285.55 935.758 284.395V275.545H936.793V284.335C936.793 284.845 936.973 285.175 937.468 285.175C937.693 285.175 937.948 285.115 938.173 285.04L938.188 285.925C937.873 286.03 937.498 286.12 937.168 286.12ZM947.023 285.01L947.038 285.925C946.648 286.045 946.258 286.12 945.913 286.12C944.923 286.12 944.203 285.565 944.203 284.26V279.475H942.973V278.605H944.203V276.685L945.238 275.905V278.605H947.023V279.475H945.238V284.125C945.238 284.845 945.568 285.175 946.153 285.175C946.408 285.175 946.693 285.115 947.023 285.01ZM952.482 278.485C954.072 278.485 954.897 279.505 954.897 281.47V286H953.862V281.725C953.862 280.12 953.352 279.4 952.242 279.4C950.832 279.4 950.037 280.555 950.037 282.595V286H949.002V275.545H950.037V279.685C950.517 278.935 951.417 278.485 952.482 278.485ZM960.019 278.485C961.879 278.485 962.959 279.55 962.959 281.395V286H962.014L961.954 284.86C961.369 285.685 960.469 286.12 959.299 286.12C957.694 286.12 956.749 285.28 956.749 283.855C956.749 283.105 957.049 282.535 957.589 282.205C958.159 281.875 958.954 281.74 960.409 281.74H961.924V281.395C961.924 280.105 961.249 279.4 960.004 279.4C959.074 279.4 958.354 279.805 957.754 280.63L957.004 280C957.799 278.965 958.759 278.485 960.019 278.485ZM959.599 285.265C961.024 285.265 961.924 284.26 961.924 282.685V282.58H960.499C959.134 282.58 958.549 282.67 958.189 282.955C957.919 283.165 957.784 283.495 957.784 283.915C957.784 284.74 958.489 285.265 959.599 285.265ZM968.541 285.01L968.556 285.925C968.166 286.045 967.776 286.12 967.431 286.12C966.441 286.12 965.721 285.565 965.721 284.26V279.475H964.491V278.605H965.721V276.685L966.756 275.905V278.605H968.541V279.475H966.756V284.125C966.756 284.845 967.086 285.175 967.671 285.175C967.926 285.175 968.211 285.115 968.541 285.01ZM975.072 286V279.475H973.512V278.605H975.087V277.465C975.087 275.89 976.002 275.425 976.947 275.425C977.352 275.425 977.802 275.515 978.267 275.71L977.907 276.535C977.592 276.385 977.307 276.295 977.052 276.295C976.467 276.295 976.107 276.7 976.107 277.39V278.605H978.237V279.475H976.107V286H975.072ZM982.453 286.12C980.338 286.12 978.913 284.485 978.913 282.295C978.913 280.105 980.338 278.485 982.453 278.485C984.553 278.485 986.008 280.105 986.008 282.295C986.008 284.47 984.568 286.12 982.453 286.12ZM982.453 285.205C984.043 285.205 984.973 283.945 984.973 282.295C984.973 280.615 984.028 279.4 982.453 279.4C980.863 279.4 979.948 280.63 979.948 282.295C979.948 283.975 980.878 285.205 982.453 285.205ZM991.323 278.485C991.773 278.485 992.193 278.575 992.598 278.8L992.088 279.64C991.743 279.49 991.428 279.415 991.113 279.415C989.973 279.415 989.133 280.27 989.133 281.875V286H988.098V278.605H989.133V279.715C989.673 278.74 990.573 278.485 991.323 278.485ZM999.045 289.06L1000.28 285.91L997.14 278.605H998.28L1000.83 284.695L1003.07 278.605H1004.21L1000.16 289.06H999.045ZM1008.48 286.12C1006.37 286.12 1004.94 284.485 1004.94 282.295C1004.94 280.105 1006.37 278.485 1008.48 278.485C1010.58 278.485 1012.04 280.105 1012.04 282.295C1012.04 284.47 1010.6 286.12 1008.48 286.12ZM1008.48 285.205C1010.07 285.205 1011 283.945 1011 282.295C1011 280.615 1010.06 279.4 1008.48 279.4C1006.89 279.4 1005.98 280.63 1005.98 282.295C1005.98 283.975 1006.91 285.205 1008.48 285.205ZM1018.74 278.605H1019.77V286H1018.74V284.935C1018.21 285.73 1017.27 286.12 1016.29 286.12C1014.61 286.12 1013.88 284.965 1013.88 283.135V278.605H1014.91V282.88C1014.91 284.08 1015.12 285.205 1016.53 285.205C1018 285.205 1018.74 283.93 1018.74 282.01V278.605ZM1023.02 286V284.35H1024.37V286H1023.02Z" fill="black"/>
<path d="M804 166V51.4624C804 43.6912 808.502 36.6236 815.544 33.338L881.309 2.65525C883.961 1.418 887 3.35382 887 6.28013V136.672" stroke="black" stroke-width="2" stroke-linecap="round"/>
<circle cx="839" cy="77" r="2" fill="black"/>
<ellipse cx="848.5" cy="77" rx="2.5" ry="2" fill="black"/>
<mask id="mask0_605_262" style="mask-type:alpha" maskUnits="userSpaceOnUse" x="805" y="42" width="67" height="129">
<rect x="805" y="42" width="67" height="129" fill="#D9D9D9"/>
</mask>
<g mask="url(#mask0_605_262)">
<ellipse cx="828.876" cy="87.2637" rx="34.8264" ry="33.8253" fill="#00B487"/>
<ellipse cx="819.106" cy="151.98" rx="48.1061" ry="8.9798" fill="#D9D9D9"/>
<path d="M816.292 117.11L784.977 144.682L780.587 140.134" stroke="black" stroke-width="2" stroke-linecap="round"/>
<path d="M838.826 117.11V151.503H832.681" stroke="black" stroke-width="2" stroke-linecap="round"/>
</g>
<circle cx="839" cy="77" r="2" fill="black"/>
<ellipse cx="848.5" cy="77" rx="2.5" ry="2" fill="black"/>
<path d="M849.143 82.5337C839.337 84.1596 831.677 81.8501 826.944 78.9916C824.468 77.4965 820.558 77.7761 819.674 80.5299C818.364 84.6125 818.674 89.0115 823.229 93.5446C841.117 111.345 866.619 79.6361 849.143 82.5337Z" fill="black"/>
<path d="M863 81C865.636 79.9372 871.727 75.6087 875 66.7971C874.273 65.2512 873.255 61.9275 875 61" stroke="black" stroke-width="2" stroke-linecap="round"/>
<ellipse cx="972.5" cy="152" rx="44.5" ry="9" fill="#D9D9D9"/>
<ellipse cx="970.5" cy="92" rx="35" ry="34" fill="#FFC548"/>
<path d="M928 70.5C929 70.5 930.9 71.4 930.5 75L937.5 80.5" stroke="black" stroke-width="2" stroke-linecap="round"/>
<path d="M988 96C993.667 94.5 1005.1 95.5 1005.5 111.5C1006.67 111.333 1009.1 111.4 1009.5 113" stroke="black" stroke-width="2" stroke-linecap="round"/>
<path d="M954 86.5L953.5 92H956" stroke="black" stroke-width="2" stroke-linecap="round"/>
<path d="M945.537 77.9312C946.28 77.3184 948.321 76.3901 950.548 77.5798" stroke="black" stroke-width="2" stroke-linecap="round"/>
<path d="M956.586 77.3376C957.328 76.7247 959.369 75.7965 961.597 76.9862" stroke="black" stroke-width="2" stroke-linecap="round"/>
<path d="M961.5 120L949.2 152L943.5 150.286" stroke="black" stroke-width="2" stroke-linecap="round"/>
<path d="M980.5 124L984.525 137.242H1003.5V143" stroke="black" stroke-width="2" stroke-linecap="round"/>
<ellipse cx="949" cy="86" rx="1.5" ry="2" fill="black"/>
<ellipse cx="959" cy="86" rx="1.5" ry="2" fill="black"/>
<path d="M959.12 100.24C962.774 101.387 971.01 100.901 974.731 89.7789" stroke="black" stroke-width="2" stroke-linecap="round"/>
</svg>
