<svg width="103" height="101" viewBox="0 0 103 101" fill="none" xmlns="http://www.w3.org/2000/svg">
<g filter="url(#filter0_ii_507_717)">
<path d="M51.5 0.859619C23.0712 0.859619 0 23.2776 0 50.9016C0 78.5255 23.0712 100.943 51.5 100.943C79.9288 100.943 103 78.5255 103 50.9016C103 23.2776 79.9288 0.859619 51.5 0.859619ZM72.4115 74.4899C71.5393 74.4899 70.9994 74.2276 70.1895 73.7635C57.2315 66.1765 42.1552 65.8536 27.2659 68.8198C26.456 69.0216 25.397 69.3444 24.7948 69.3444C22.7804 69.3444 21.5137 67.7907 21.5137 66.1563C21.5137 64.0779 22.7804 63.0892 24.3379 62.7663C41.3454 59.1141 58.7266 59.4369 73.5536 68.053C74.8204 68.84 75.5679 69.5462 75.5679 71.3824C75.5679 73.2186 74.0936 74.4899 72.4115 74.4899ZM77.9976 61.253C76.9177 61.253 76.1909 60.7889 75.4433 60.4055C62.4645 52.9396 43.1105 49.933 25.8954 54.4731C24.8986 54.7354 24.3587 54.9977 23.4242 54.9977C21.2022 54.9977 19.3956 53.2422 19.3956 51.0832C19.3956 48.9241 20.4754 47.4914 22.6143 46.9063C28.3873 45.3324 34.2849 44.162 42.9236 44.162C56.4008 44.162 69.4212 47.4107 79.6796 53.3431C81.3617 54.3117 82.0262 55.5627 82.0262 57.3182C82.0054 59.4975 80.2611 61.253 77.9976 61.253ZM84.4351 45.8772C83.3552 45.8772 82.6907 45.6149 81.7562 45.0902C66.9708 36.5145 40.5355 34.4563 23.4242 39.0973C22.6766 39.2991 21.7421 39.6219 20.7454 39.6219C18.0042 39.6219 15.9069 37.5436 15.9069 34.8599C15.9069 32.1157 17.6512 30.5619 19.5202 30.0373C26.8298 27.9589 35.0117 26.9702 43.9204 26.9702C59.0796 26.9702 74.9657 30.0373 86.574 36.6154C88.1937 37.5234 89.2528 38.7745 89.2528 41.1757C89.2528 43.9199 86.9685 45.8772 84.4351 45.8772Z" fill="#E9EEF1"/>
</g>
<defs>
<filter id="filter0_ii_507_717" x="-6" y="-5.14038" width="115" height="112.084" filterUnits="userSpaceOnUse" color-interpolation-filters="sRGB">
<feFlood flood-opacity="0" result="BackgroundImageFix"/>
<feBlend mode="normal" in="SourceGraphic" in2="BackgroundImageFix" result="shape"/>
<feColorMatrix in="SourceAlpha" type="matrix" values="0 0 0 0 0 0 0 0 0 0 0 0 0 0 0 0 0 0 127 0" result="hardAlpha"/>
<feOffset dx="6" dy="6"/>
<feGaussianBlur stdDeviation="3"/>
<feComposite in2="hardAlpha" operator="arithmetic" k2="-1" k3="1"/>
<feColorMatrix type="matrix" values="0 0 0 0 0.65098 0 0 0 0 0.705882 0 0 0 0 0.784314 0 0 0 0.75 0"/>
<feBlend mode="normal" in2="shape" result="effect1_innerShadow_507_717"/>
<feColorMatrix in="SourceAlpha" type="matrix" values="0 0 0 0 0 0 0 0 0 0 0 0 0 0 0 0 0 0 127 0" result="hardAlpha"/>
<feOffset dx="-6" dy="-6"/>
<feGaussianBlur stdDeviation="3"/>
<feComposite in2="hardAlpha" operator="arithmetic" k2="-1" k3="1"/>
<feColorMatrix type="matrix" values="0 0 0 0 1 0 0 0 0 1 0 0 0 0 1 0 0 0 1 0"/>
<feBlend mode="normal" in2="effect1_innerShadow_507_717" result="effect2_innerShadow_507_717"/>
</filter>
</defs>
</svg>
